<svg width="169" height="16" viewBox="0 0 169 16" fill="none" xmlns="http://www.w3.org/2000/svg">
<path d="M2.51903 15.5998H0V1.08618H5.49073C8.75768 1.08618 10.6667 2.75406 10.6667 5.61307C10.6667 7.55876 9.76134 8.94858 8.06881 9.64342L10.8044 15.5998H8.04916L5.60883 10.1795H2.51903V15.5998ZM2.51903 3.34969V7.93603H5.49073C7.08479 7.93603 8.02952 7.08228 8.02952 5.61307C8.02952 4.16369 7.08479 3.34969 5.49073 3.34969H2.51903Z" fill="white"/>
<path d="M23.594 15.5998H14.6592V1.08618H23.594V3.42908H17.1782V7.16167H22.9248V9.40524H17.1782V13.257H23.594V15.5998Z" fill="white"/>
<path d="M26.543 3.42908V1.08618H37.4851V3.42908H33.2736V15.5998H30.7545V3.42908H26.543Z" fill="white"/>
<path d="M43.4058 15.5998H40.8867V1.08618H46.3774C49.6444 1.08618 51.5534 2.75406 51.5534 5.61307C51.5534 7.55876 50.6481 8.94858 48.9555 9.64342L51.6911 15.5998H48.9359L46.4956 10.1795H43.4058V15.5998ZM43.4058 3.34969V7.93603H46.3774C47.9715 7.93603 48.9162 7.08228 48.9162 5.61307C48.9162 4.16369 47.9715 3.34969 46.3774 3.34969H43.4058Z" fill="white"/>
<path d="M89.4482 15.5998V1.08618H95.1752C98.0091 1.08618 99.7409 2.57533 99.7409 4.9975C99.7409 6.6058 99.0324 7.75731 97.6746 8.33312C99.1899 8.82942 99.9574 9.98093 99.9574 11.6686C99.9574 14.1504 98.2452 15.5998 95.2735 15.5998H89.4482ZM94.9587 3.32975H91.9673V7.28083H95.0177C96.3953 7.28083 97.1629 6.54622 97.1629 5.25562C97.1629 4.00478 96.3756 3.32975 94.9587 3.32975ZM95.1752 9.42506H91.9673V13.3562H95.1752C96.5921 13.3562 97.3793 12.6613 97.3793 11.3509C97.3793 10.1199 96.5724 9.42506 95.1752 9.42506Z" fill="white"/>
<path d="M106.262 15.5998H103.743V1.08618H109.234C112.501 1.08618 114.409 2.75406 114.409 5.61307C114.409 7.55876 113.504 8.94858 111.813 9.64342L114.548 15.5998H111.792L109.352 10.1795H106.262V15.5998ZM106.262 3.34969V7.93603H109.234C110.828 7.93603 111.772 7.08228 111.772 5.61307C111.772 4.16369 110.828 3.34969 109.234 3.34969H106.262Z" fill="white"/>
<path d="M120.923 1.08618V15.5998H118.403V1.08618H120.923Z" fill="white"/>
<path d="M130.765 15.5998H125.589V1.08618H130.626C134.878 1.08618 137.81 4.04453 137.81 8.37276C137.81 12.6414 134.937 15.5998 130.765 15.5998ZM130.39 3.42908H128.108V13.257H130.528C133.402 13.257 135.153 11.3907 135.153 8.37276C135.153 5.29538 133.363 3.42908 130.39 3.42908Z" fill="white"/>
<path d="M147.928 3.23068C145.075 3.23068 143.442 5.31534 143.442 8.45229C143.442 11.6886 145.291 13.4557 147.949 13.4557C150.447 13.4557 151.963 12.0659 151.963 9.7429V9.68332H147.614V7.43975H154.305V15.5999H152.18L152.022 13.9321C151.235 15.044 149.601 15.8183 147.653 15.8183C143.619 15.8183 140.805 12.86 140.805 8.39272C140.805 3.9851 143.658 0.848145 147.988 0.848145C151.275 0.848145 153.812 2.77401 154.226 5.73224H151.569C151.116 4.02486 149.66 3.23068 147.928 3.23068Z" fill="white"/>
<path d="M168.033 15.5998H159.098V1.08618H168.033V3.42908H161.617V7.16167H167.364V9.40524H161.617V13.257H168.033V15.5998Z" fill="white"/>
<path fill-rule="evenodd" clip-rule="evenodd" d="M70.8006 2.18944C63.1255 2.18944 56.9036 8.19347 56.9036 15.5998H54.6348C54.6348 6.98424 61.8724 0 70.8006 0C79.7288 0 86.9665 6.98424 86.9665 15.5998H84.6975C84.6975 8.19347 78.4757 2.18944 70.8006 2.18944Z" fill="url(#paint0_linear_7575_5092)"/>
<defs>
<linearGradient id="paint0_linear_7575_5092" x1="54.6348" y1="12.0544" x2="86.9665" y2="12.0544" gradientUnits="userSpaceOnUse">
<stop stop-color="#8F7CFF"/>
<stop offset="1" stop-color="#E5C4FF"/>
</linearGradient>
</defs>
</svg>
