<svg width="35" height="36" viewBox="0 0 35 36" fill="none" xmlns="http://www.w3.org/2000/svg">
<path d="M15 1.94338C16.547 1.05021 18.453 1.05021 20 1.94338L30.1554 7.80662C31.7025 8.69979 32.6554 10.3504 32.6554 12.1368V23.8632C32.6554 25.6496 31.7025 27.3002 30.1554 28.1934L20 34.0566C18.453 34.9498 16.547 34.9498 15 34.0566L4.84456 28.1934C3.29755 27.3002 2.34456 25.6496 2.34456 23.8632V12.1368C2.34456 10.3504 3.29755 8.69979 4.84456 7.80662L15 1.94338Z" fill="#1F57C3"/>
<path d="M17.5845 12.5296L18.7925 15.1797C18.8607 15.3292 19.0099 15.4252 19.1742 15.4252H19.5695C19.6698 15.4252 19.7424 15.3637 19.778 15.2976C19.8129 15.2327 19.8223 15.1474 19.7866 15.0691L18.3061 11.8212C18.0197 11.1929 17.1492 11.1929 16.8628 11.8212L15.3823 15.0691C15.3089 15.2303 15.162 15.339 14.9954 15.3607L11.5469 15.8112C10.8727 15.8993 10.6165 16.7478 11.1003 17.2171L13.6338 19.6749C13.7584 19.7958 13.8157 19.9757 13.7832 20.1519L13.1324 23.6782C13.009 24.3468 13.7001 24.8872 14.3008 24.5462L17.347 22.8174C17.4951 22.7333 17.6739 22.7333 17.8219 22.8174L20.8682 24.5462C21.4689 24.8872 22.1599 24.3468 22.0366 23.6782L21.639 21.5242C21.5976 21.2996 21.4016 21.1365 21.1732 21.1365C20.8771 21.1365 20.6536 21.405 20.7073 21.6962L21.0478 23.5411L18.2815 21.9711C17.8476 21.7249 17.3213 21.7249 16.8875 21.9711L14.1212 23.5411L14.7135 20.3314C14.8053 19.8339 14.6448 19.3213 14.2855 18.9727L11.9748 16.7311L15.1154 16.3209C15.6076 16.2566 16.0311 15.9372 16.2405 15.478L17.5845 12.5296ZM21.9123 15.6091C21.9123 15.3464 21.7049 15.1252 21.4389 15.1252C21.173 15.1252 20.9656 15.3464 20.9656 15.6091V17.436H19.2013C18.9354 17.436 18.728 17.6573 18.728 17.92C18.728 18.1827 18.9354 18.4039 19.2013 18.4039H20.9656V20.2309C20.9656 20.4936 21.173 20.7149 21.4389 20.7149C21.7049 20.7149 21.9123 20.4936 21.9123 20.2309V18.4039H23.6766C23.9426 18.4039 24.15 18.1827 24.15 17.92C24.15 17.6573 23.9426 17.436 23.6766 17.436H21.9123V15.6091Z" fill="white" stroke="white" stroke-width="0.3" stroke-linecap="round" stroke-linejoin="round"/>
</svg>
