<svg width="70" height="70" viewBox="0 0 70 70" fill="none" xmlns="http://www.w3.org/2000/svg">
<circle cx="35" cy="35" r="34.75" stroke="white" stroke-opacity="0.5" stroke-width="0.5"/>
<circle cx="35" cy="35" r="25" fill="white"/>
<path d="M44.7403 39.8364C41.9281 39.8364 40.0679 37.6377 39.5472 36.7823C40.2125 31.3783 42.1623 29.675 44.7403 29.675C47.2875 29.675 49.2716 31.7382 49.2716 34.7557C49.2716 37.7732 47.2875 39.8364 44.7403 39.8364ZM44.7403 26.358C40.1565 26.358 37.5875 29.3865 36.8535 32.5047C36.0183 30.9168 35.4036 28.7922 34.9191 26.8178H28.5835V34.807C28.5835 37.71 27.2837 39.8502 24.7337 39.8502C22.1837 39.8502 20.723 37.71 20.723 34.8079L20.7501 26.8178H17.0983V34.807C17.0983 37.1395 17.8449 39.254 19.2008 40.7632C20.6001 42.3182 22.5128 43.1396 24.7319 43.1396C29.1412 43.1396 32.2173 39.7137 32.2173 34.8097V29.4415C32.6819 31.208 33.772 34.6055 35.8701 37.5845L33.9103 48.8889H37.6237L38.9172 40.874C39.342 41.2303 39.7922 41.5526 40.264 41.8402C41.5018 42.6372 42.9282 43.0828 44.394 43.1305H44.4013C44.5107 43.1305 44.6218 43.1369 44.7348 43.1369C49.2807 43.1369 52.9009 39.5709 52.9009 34.764C52.9018 29.9543 49.2852 26.358 44.7403 26.358Z" fill="black"/>
</svg>
