<svg width="48" height="48" viewBox="0 0 48 48" fill="none" xmlns="http://www.w3.org/2000/svg">
  <mask id="mask0_4538_2390" style="mask-type:alpha" maskUnits="userSpaceOnUse" x="0" y="0" width="48" height="48">
    <rect width="48" height="48" fill="#D9D9D9"/>
  </mask>
  <g mask="url(#mask0_4538_2390)">
    <path d="M18.338 24L33.4035 39.0655C33.8008 39.4628 33.9943 39.9358 33.984 40.4845C33.9736 41.0332 33.7698 41.5063 33.3725 41.904C32.9751 42.3013 32.5021 42.5 31.9535 42.5C31.4048 42.5 30.9316 42.3013 30.534 41.904L15.2225 26.5615C14.8611 26.1998 14.5933 25.7947 14.419 25.346C14.2443 24.8973 14.157 24.4487 14.157 24C14.157 23.5513 14.2443 23.1027 14.419 22.654C14.5933 22.2053 14.8611 21.8002 15.2225 21.4385L30.565 6.096C30.9623 5.69867 31.4301 5.5052 31.9685 5.5155C32.5071 5.5258 32.9751 5.72967 33.3725 6.127C33.7698 6.52433 33.9685 6.99733 33.9685 7.546C33.9685 8.09467 33.7698 8.56778 33.3725 8.9655L18.338 24Z" fill="white"/>
  </g>
</svg>
