<svg width="48" height="48" viewBox="0 0 48 48" fill="none" xmlns="http://www.w3.org/2000/svg">
<mask id="mask0_4538_2390" style="mask-type:alpha" maskUnits="userSpaceOnUse" x="0" y="0" width="48" height="48">
<rect width="48" height="48" fill="#D9D9D9"/>
</mask>
<g mask="url(#mask0_4538_2390)">
<path d="M29.662 24L14.5965 8.9345C14.1992 8.53717 14.0057 8.06417 14.016 7.5155C14.0264 6.96683 14.2302 6.49367 14.6275 6.096C15.0249 5.69867 15.4979 5.5 16.0465 5.5C16.5952 5.5 17.0684 5.69867 17.466 6.096L32.7775 21.4385C33.1389 21.8002 33.4067 22.2053 33.581 22.654C33.7557 23.1027 33.843 23.5513 33.843 24C33.843 24.4487 33.7557 24.8973 33.581 25.346C33.4067 25.7947 33.1389 26.1998 32.7775 26.5615L17.435 41.904C17.0377 42.3013 16.5699 42.4948 16.0315 42.4845C15.4929 42.4742 15.0249 42.2703 14.6275 41.873C14.2302 41.4757 14.0315 41.0027 14.0315 40.454C14.0315 39.9053 14.2302 39.4322 14.6275 39.0345L29.662 24Z" fill="white"/>
</g>
</svg>
