<svg width="16" height="10" viewBox="0 0 16 10" fill="none" xmlns="http://www.w3.org/2000/svg">
<g clip-path="url(#clip0_7617_4945)">
<path d="M4.54745 3.49495C4.54745 3.68968 4.5685 3.84758 4.60535 3.96337C4.64745 4.07916 4.70008 4.20547 4.77377 4.34232C4.80008 4.38442 4.81061 4.42653 4.81061 4.46337C4.81061 4.516 4.77903 4.56863 4.71061 4.62126L4.37903 4.84232C4.33166 4.87389 4.28429 4.88968 4.24219 4.88968C4.18956 4.88968 4.13692 4.86337 4.08429 4.816C4.01061 4.73705 3.94745 4.65284 3.89482 4.56863C3.84219 4.47916 3.78956 4.37916 3.73166 4.25811C3.32114 4.74232 2.80535 4.98442 2.18429 4.98442C1.74219 4.98442 1.38956 4.85811 1.13166 4.60547C0.873766 4.35284 0.742188 4.016 0.742188 3.59495C0.742188 3.14758 0.900082 2.78442 1.22113 2.51074C1.54219 2.23705 1.9685 2.10021 2.51061 2.10021C2.68956 2.10021 2.87377 2.116 3.0685 2.14232C3.26324 2.16863 3.46324 2.21074 3.67377 2.25811V1.87389C3.67377 1.47389 3.58956 1.19495 3.4264 1.03179C3.25798 0.868632 2.97377 0.789684 2.5685 0.789684C2.38429 0.789684 2.19482 0.810737 2.00008 0.858105C1.80535 0.905474 1.61587 0.963369 1.43166 1.03705C1.34745 1.07389 1.28429 1.09495 1.24745 1.10547C1.21061 1.116 1.18429 1.12126 1.16324 1.12126C1.08956 1.12126 1.05271 1.06863 1.05271 0.958105V0.700211C1.05271 0.616 1.06324 0.552842 1.08956 0.516C1.11587 0.479158 1.16324 0.442316 1.23692 0.405474C1.42113 0.310737 1.64219 0.23179 1.90008 0.168632C2.15798 0.100211 2.43166 0.0686318 2.72113 0.0686318C3.34745 0.0686318 3.80535 0.210737 4.10008 0.494947C4.38956 0.779158 4.53692 1.21074 4.53692 1.78968V3.49495H4.54745ZM2.41061 4.29495C2.58429 4.29495 2.76324 4.26337 2.95271 4.20021C3.14219 4.13705 3.31061 4.02126 3.45271 3.86337C3.53692 3.76337 3.60008 3.65284 3.63166 3.52653C3.66324 3.40021 3.68429 3.24758 3.68429 3.06863V2.84758C3.53166 2.81074 3.3685 2.77916 3.20008 2.75811C3.03166 2.73705 2.8685 2.72653 2.70535 2.72653C2.35271 2.72653 2.09482 2.79495 1.92113 2.93705C1.74745 3.07916 1.66324 3.27916 1.66324 3.54232C1.66324 3.78968 1.7264 3.97389 1.85798 4.10021C1.98429 4.23179 2.1685 4.29495 2.41061 4.29495ZM6.63692 4.86337C6.54219 4.86337 6.47903 4.84758 6.43692 4.81074C6.39482 4.77916 6.35798 4.70547 6.3264 4.60547L5.08956 0.537053C5.05798 0.43179 5.04219 0.363369 5.04219 0.326526C5.04219 0.242316 5.08429 0.194948 5.1685 0.194948H5.68429C5.78429 0.194948 5.85271 0.210737 5.88956 0.247579C5.93166 0.279158 5.96324 0.352842 5.99482 0.452842L6.87903 3.93705L7.70008 0.452842C7.7264 0.347579 7.75798 0.279158 7.80008 0.247579C7.84219 0.216 7.91587 0.194948 8.01061 0.194948H8.43166C8.53166 0.194948 8.60008 0.210737 8.64219 0.247579C8.68429 0.279158 8.72114 0.352842 8.74219 0.452842L9.57377 3.97916L10.4843 0.452842C10.5159 0.347579 10.5527 0.279158 10.5896 0.247579C10.6317 0.216 10.7001 0.194948 10.7948 0.194948H11.2843C11.3685 0.194948 11.4159 0.237053 11.4159 0.326526C11.4159 0.352842 11.4106 0.379158 11.4053 0.410737C11.4001 0.442316 11.3896 0.484421 11.3685 0.542316L10.1001 4.61074C10.0685 4.716 10.0317 4.78442 9.98956 4.816C9.94745 4.84758 9.87903 4.86863 9.78956 4.86863H9.33692C9.23692 4.86863 9.1685 4.85284 9.1264 4.816C9.08429 4.77916 9.04745 4.71074 9.0264 4.60547L8.21061 1.21074L7.40008 4.60021C7.37377 4.70547 7.34219 4.77389 7.30008 4.81074C7.25798 4.84758 7.18429 4.86337 7.08956 4.86337H6.63692ZM13.4001 5.00547C13.1264 5.00547 12.8527 4.9739 12.5896 4.91074C12.3264 4.84758 12.1211 4.77916 11.9843 4.70021C11.9001 4.65284 11.8422 4.60021 11.8211 4.55284C11.8001 4.50547 11.7896 4.45284 11.7896 4.40547V4.13705C11.7896 4.02653 11.8317 3.97389 11.9106 3.97389C11.9422 3.97389 11.9738 3.97916 12.0053 3.98968C12.0369 4.00021 12.0843 4.02126 12.1369 4.04232C12.3159 4.12126 12.5106 4.18442 12.7159 4.22653C12.9264 4.26863 13.1317 4.28968 13.3422 4.28968C13.6738 4.28968 13.9317 4.23179 14.1106 4.116C14.2896 4.00021 14.3843 3.83179 14.3843 3.616C14.3843 3.46863 14.3369 3.34758 14.2422 3.24758C14.1475 3.14758 13.9685 3.05811 13.7106 2.97389L12.9475 2.73705C12.5632 2.616 12.279 2.43705 12.1053 2.20021C11.9317 1.96863 11.8422 1.71074 11.8422 1.43705C11.8422 1.216 11.8896 1.02126 11.9843 0.852842C12.079 0.684421 12.2053 0.537053 12.3632 0.421263C12.5211 0.300211 12.7001 0.210737 12.9106 0.147579C13.1211 0.0844213 13.3422 0.0581055 13.5738 0.0581055C13.6896 0.0581055 13.8106 0.0633686 13.9264 0.0791581C14.0475 0.0949476 14.158 0.116 14.2685 0.137053C14.3738 0.163369 14.4738 0.189684 14.5685 0.221263C14.6632 0.252842 14.7369 0.284421 14.7896 0.316C14.8632 0.358105 14.9159 0.400211 14.9475 0.447579C14.979 0.489684 14.9948 0.547579 14.9948 0.621263V0.868632C14.9948 0.979158 14.9527 1.03705 14.8738 1.03705C14.8317 1.03705 14.7632 1.016 14.6738 0.973895C14.3738 0.837053 14.0369 0.768632 13.6632 0.768632C13.3632 0.768632 13.1264 0.816 12.9632 0.916C12.8001 1.016 12.7159 1.16863 12.7159 1.38442C12.7159 1.53179 12.7685 1.65811 12.8738 1.75811C12.979 1.85811 13.1738 1.95811 13.4527 2.04758L14.2001 2.28442C14.579 2.40547 14.8527 2.57389 15.0159 2.78968C15.179 3.00547 15.258 3.25284 15.258 3.52653C15.258 3.75284 15.2106 3.95811 15.1211 4.13705C15.0264 4.316 14.9001 4.47389 14.7369 4.60021C14.5738 4.73179 14.379 4.82653 14.1527 4.89495C13.9159 4.96863 13.6685 5.00547 13.4001 5.00547Z" fill="white"/>
<path fill-rule="evenodd" clip-rule="evenodd" d="M14.3948 7.56298C12.6633 8.84193 10.1475 9.52088 7.98431 9.52088C4.95273 9.52088 2.22115 8.39983 0.157997 6.53667C-0.00516111 6.3893 0.142207 6.1893 0.336944 6.30509C2.56852 7.59983 5.32115 8.38404 8.16852 8.38404C10.0896 8.38404 12.2001 7.98404 14.1422 7.16298C14.4317 7.03141 14.6791 7.35246 14.3948 7.56298Z" fill="white"/>
<path fill-rule="evenodd" clip-rule="evenodd" d="M15.1164 6.74214C14.8953 6.45793 13.6532 6.6053 13.0901 6.67372C12.9217 6.69477 12.8953 6.5474 13.048 6.43687C14.0374 5.74214 15.6638 5.94214 15.8532 6.17372C16.0427 6.41056 15.8006 8.03687 14.8743 8.81582C14.7322 8.93687 14.5953 8.87372 14.6585 8.71582C14.869 8.19477 15.3374 7.02109 15.1164 6.74214Z" fill="white"/>
</g>
<defs>
<clipPath id="clip0_7617_4945">
<rect width="16" height="9.57895" fill="white"/>
</clipPath>
</defs>
</svg>
