<svg width="16" height="16" viewBox="0 0 16 16" fill="none" xmlns="http://www.w3.org/2000/svg">
<path d="M15.7597 9.93734C14.6911 14.2236 10.3498 16.8321 6.06306 15.7632C1.77811 14.6947 -0.830409 10.3531 0.238639 6.06724C1.30675 1.78053 5.64801 -0.828188 9.93344 0.240391C14.2199 1.30897 16.8282 5.65098 15.7595 9.93742L15.7596 9.93734H15.7597Z" fill="white"/>
<path d="M11.5271 6.86197C11.6863 5.79722 10.8757 5.22488 9.76723 4.84307L10.1268 3.40078L9.24885 3.18201L8.8988 4.58633C8.66799 4.52876 8.43096 4.47452 8.19537 4.42075L8.54797 3.00716L7.67055 2.78839L7.31076 4.23021C7.11975 4.18673 6.93215 4.14375 6.75015 4.09846L6.75116 4.09392L5.54043 3.79158L5.30688 4.72931C5.30688 4.72931 5.95826 4.87862 5.94453 4.88781C6.30006 4.97654 6.36435 5.21189 6.35367 5.39844L5.94406 7.04155C5.96854 7.04777 6.0003 7.05676 6.03534 7.07084C6.00604 7.06357 5.97488 7.05563 5.94253 7.04788L5.36839 9.34964C5.32494 9.45766 5.21466 9.61976 4.96609 9.55821C4.97489 9.57095 4.32797 9.39896 4.32797 9.39896L3.89208 10.4039L5.03461 10.6888C5.24716 10.7421 5.45545 10.7978 5.66057 10.8503L5.29726 12.3091L6.17421 12.5279L6.534 11.0845C6.77357 11.1496 7.00607 11.2096 7.23367 11.2661L6.8751 12.7027L7.7531 12.9214L8.11637 11.4653C9.61349 11.7487 10.7392 11.6344 11.213 10.2803C11.5948 9.19005 11.194 8.56119 10.4064 8.15111C10.9801 8.01881 11.4122 7.6415 11.5274 6.86208L11.5271 6.86189L11.5271 6.86197ZM9.52112 9.67482C9.24979 10.7651 7.41416 10.1757 6.81902 10.0279L7.30114 8.09523C7.89624 8.2438 9.80469 8.53781 9.52116 9.67482H9.52112ZM9.79265 6.84617C9.54513 7.83786 8.01731 7.33403 7.5217 7.21049L7.95881 5.45765C8.45442 5.58119 10.0505 5.81177 9.79272 6.84617H9.79265Z" fill="black"/>
</svg>
