<svg width="16" height="16" viewBox="0 0 16 16" fill="none" xmlns="http://www.w3.org/2000/svg">
<circle cx="8" cy="8" r="8" fill="white"/>
<path d="M6.49951 9.1284L7.61555 9.2657C7.43955 9.9144 7.11353 10.4178 6.63752 10.776C6.1615 11.1342 5.55348 11.3133 4.81345 11.3133C3.88142 11.3133 3.14139 11.0287 2.59337 10.4596C2.04935 9.88654 1.77734 9.08462 1.77734 8.05387C1.77734 6.9873 2.05335 6.15951 2.60537 5.57051C3.15739 4.98151 3.87342 4.68701 4.75345 4.68701C5.60548 4.68701 6.30151 4.97554 6.84152 5.5526C7.38154 6.12967 7.65155 6.94153 7.65155 7.9882C7.65155 8.05188 7.64955 8.14739 7.64555 8.27475H2.89338C2.93339 8.9712 3.13139 9.50448 3.4874 9.8746C3.84342 10.2447 4.28743 10.4298 4.81945 10.4298C5.21547 10.4298 5.55348 10.3263 5.83349 10.1194C6.1135 9.91241 6.33551 9.58209 6.49951 9.1284ZM2.95339 7.39124H6.51151C6.46351 6.85796 6.32751 6.45799 6.1035 6.19135C5.75949 5.77746 5.31347 5.57051 4.76545 5.57051C4.26943 5.57051 3.85142 5.73567 3.51141 6.06599C3.17539 6.39631 2.98939 6.83806 2.95339 7.39124Z" fill="black"/>
<path d="M7.93434 11.17L10.2624 7.87478L8.10835 4.83028H9.4584L10.4364 6.31671C10.6204 6.59928 10.7684 6.83607 10.8804 7.0271C11.0565 6.76443 11.2185 6.53162 11.3665 6.32865L12.4405 4.83028H13.7305L11.5285 7.81509L13.8986 11.17H12.5725L11.2645 9.20003L10.9164 8.66874L9.24239 11.17H7.93434Z" fill="black"/>
</svg>
