<svg width="17" height="14" viewBox="0 0 17 14" fill="none" xmlns="http://www.w3.org/2000/svg">
<path d="M10.1974 3.68982H10.6854L12.0762 2.29902L12.1445 1.70854C11.3478 1.0053 10.3849 0.516795 9.34691 0.289153C8.30888 0.0615103 7.22995 0.102251 6.21204 0.407525C5.19414 0.7128 4.27085 1.27253 3.52942 2.03384C2.78798 2.79515 2.25286 3.73291 1.97461 4.75854C2.12955 4.69503 2.30119 4.68473 2.46261 4.72926L5.24421 4.27054C5.24421 4.27054 5.38573 4.0363 5.45893 4.05094C6.05494 3.39637 6.87861 2.99437 7.76133 2.92723C8.64404 2.8601 9.51903 3.13291 10.2072 3.68982H10.1974Z" fill="white"/>
<path d="M14.0578 4.7585C13.7382 3.58127 13.0818 2.52294 12.1693 1.71338L10.2173 3.66538C10.6241 3.99779 10.9501 4.41824 11.1708 4.89501C11.3914 5.37179 11.5009 5.89244 11.491 6.4177V6.76418C11.7191 6.76418 11.945 6.80912 12.1558 6.89643C12.3666 6.98373 12.5581 7.1117 12.7194 7.27302C12.8807 7.43434 13.0087 7.62586 13.096 7.83664C13.1833 8.04741 13.2282 8.27332 13.2282 8.50147C13.2282 8.72961 13.1833 8.95552 13.096 9.1663C13.0087 9.37707 12.8807 9.56859 12.7194 9.72991C12.5581 9.89123 12.3666 10.0192 12.1558 10.1065C11.945 10.1938 11.7191 10.2387 11.491 10.2387H8.0164L7.66992 10.5901V12.6739L8.0164 13.0204H11.491C12.4612 13.0279 13.4082 12.723 14.1917 12.1506C14.9752 11.5783 15.5537 10.769 15.8415 9.84236C16.1294 8.91576 16.1114 7.92111 15.7902 7.00554C15.469 6.08997 14.8616 5.30211 14.0578 4.7585Z" fill="white"/>
<path d="M4.53652 13.0008H8.01108V10.2191H4.53652C4.28897 10.2191 4.04433 10.1658 3.81916 10.063L3.33116 10.2143L1.93059 11.6051L1.80859 12.0931C2.594 12.6861 3.55236 13.005 4.53652 13.0008Z" fill="white"/>
<path d="M4.53681 3.97757C3.59537 3.98319 2.6792 4.28271 1.91625 4.8343C1.1533 5.38589 0.581677 6.162 0.281222 7.05422C-0.0192324 7.94645 -0.0335157 8.91024 0.240367 9.81098C0.51425 10.7117 1.06262 11.5044 1.80889 12.0784L3.82433 10.0629C3.56821 9.94722 3.34399 9.7711 3.1709 9.54967C2.99781 9.32825 2.88103 9.06814 2.83057 8.79166C2.78011 8.51518 2.79747 8.23058 2.88118 7.96229C2.96489 7.694 3.11244 7.45002 3.31117 7.25129C3.5099 7.05256 3.75388 6.90501 4.02217 6.8213C4.29046 6.73759 4.57506 6.72022 4.85154 6.77069C5.12802 6.82115 5.38813 6.93793 5.60955 7.11102C5.83098 7.28411 6.0071 7.50833 6.12282 7.76445L8.13826 5.74901C7.71523 5.19599 7.17002 4.74832 6.54524 4.44101C5.92047 4.1337 5.23307 3.97509 4.53681 3.97757Z" fill="white"/>
</svg>
