<svg width="14" height="14" viewBox="0 0 14 14" fill="none" xmlns="http://www.w3.org/2000/svg">
<path d="M12.5086 0C11.9901 0 11.5087 0.268842 11.2371 0.710785L8.31065 5.05557C8.21534 5.19874 8.25401 5.39181 8.39721 5.48712C8.51328 5.56451 8.66684 5.55493 8.77254 5.464L11.6531 2.96552C11.701 2.92246 11.7748 2.92685 11.8178 2.9747C11.8374 2.99665 11.8478 3.02497 11.8478 3.05407V10.8765C11.8478 10.9411 11.7955 10.993 11.7309 10.993C11.6962 10.993 11.6635 10.9778 11.6415 10.9511L2.93402 0.528103C2.65043 0.193443 2.23402 0.000401187 1.79566 0H1.49135C0.667693 0 0 0.667693 0 1.49135V12.5086C0 13.3323 0.667693 14 1.49135 14C2.00985 14 2.49127 13.7312 2.7629 13.2892L5.68935 8.94443C5.78466 8.80126 5.74599 8.60819 5.60279 8.51287C5.48672 8.43549 5.33316 8.44507 5.22746 8.536L2.34689 11.0345C2.29904 11.0775 2.22524 11.0732 2.18217 11.0253C2.16263 11.0033 2.15225 10.975 2.15265 10.9459V3.12149C2.15265 3.05688 2.2049 3.00501 2.26951 3.00501C2.30383 3.00501 2.33694 3.02018 2.35886 3.04689L11.0652 13.4719C11.3488 13.8066 11.7652 13.9996 12.2035 14H12.5079C13.3315 14.0004 13.9996 13.3331 14.0004 12.5094V1.49135C14.0004 0.667693 13.3327 0 12.509 0H12.5086Z" fill="white"/>
</svg>
