<svg width="16" height="16" viewBox="0 0 16 16" fill="none" xmlns="http://www.w3.org/2000/svg">
<path fill-rule="evenodd" clip-rule="evenodd" d="M9.42098 0C9.30529 0 9.19785 0.0247991 9.09869 0.0578626C9.30942 0.198386 9.42511 0.384374 9.48296 0.595158C9.48711 0.624089 9.49536 0.644755 9.4995 0.673685C9.50364 0.698484 9.50776 0.723282 9.50776 0.748081C9.52429 1.11179 9.41272 1.15725 9.33421 1.37217C9.21438 1.64908 9.24744 1.94666 9.39206 2.18638C9.40446 2.21531 9.42098 2.24837 9.44165 2.27731C9.28463 1.23165 10.1565 1.07459 10.3176 0.748081C10.33 0.462901 10.0945 0.272781 9.90856 0.140523C9.73089 0.0330645 9.56974 0 9.42098 0ZM10.735 0.235584C10.7184 0.330643 10.7308 0.305845 10.7267 0.355442C10.7226 0.388505 10.7226 0.429837 10.7185 0.462901C10.7102 0.495965 10.7019 0.529029 10.6895 0.562095C10.6813 0.595158 10.6689 0.628223 10.6565 0.661286C10.6399 0.694352 10.6275 0.723282 10.611 0.756347C10.5986 0.772886 10.5904 0.78941 10.578 0.805944C10.5697 0.818343 10.5614 0.830742 10.5532 0.843141C10.5325 0.872073 10.5119 0.901003 10.4912 0.925801C10.4664 0.9506 10.4457 0.97953 10.4168 1.0002V1.00434C10.392 1.025 10.3672 1.0498 10.3383 1.07046C10.2515 1.13659 10.1524 1.18619 10.0615 1.24818C10.0325 1.26885 10.0036 1.28538 9.97882 1.31018C9.9499 1.33084 9.9251 1.35151 9.90031 1.37631C9.87139 1.40111 9.85073 1.42591 9.82593 1.45484C9.80527 1.47964 9.78048 1.50857 9.76396 1.5375C9.74329 1.56643 9.72264 1.59536 9.70611 1.62429C9.68957 1.65735 9.67718 1.68629 9.66065 1.71935C9.64826 1.75241 9.63586 1.78135 9.6276 1.81441C9.6152 1.85161 9.60694 1.88467 9.59867 1.91774C9.59454 1.93428 9.59454 1.95493 9.59042 1.97147C9.58627 1.98801 9.58627 2.00453 9.58216 2.02106C9.58216 2.05413 9.57802 2.09133 9.57802 2.12439C9.57802 2.14919 9.57802 2.17399 9.58216 2.19878C9.58216 2.23185 9.5863 2.26491 9.59455 2.30211C9.59869 2.33517 9.60695 2.36824 9.61522 2.4013C9.62761 2.43437 9.63588 2.46743 9.64827 2.5005C9.65653 2.52116 9.66893 2.54183 9.6772 2.55836L8.72683 2.19052C8.56568 2.14505 8.40866 2.10372 8.24751 2.06653C8.16074 2.04586 8.07397 2.0252 7.9872 2.00453C7.73927 1.95493 7.48722 1.91774 7.23517 1.89294C7.22691 1.89294 7.22277 1.8888 7.21451 1.8888C6.96659 1.864 6.7228 1.8516 6.47488 1.8516C6.29307 1.8516 6.11126 1.85986 5.93358 1.87227C5.68153 1.88881 5.42947 1.92187 5.17742 1.96319C5.11544 1.97145 5.05346 1.98386 4.99148 1.99626C4.86339 2.02106 4.73943 2.04999 4.6196 2.07892C4.55762 2.09546 4.49564 2.11199 4.43365 2.12852C4.37168 2.15331 4.31383 2.18225 4.25598 2.20705C4.21053 2.22771 4.16507 2.24838 4.11962 2.26904C4.11136 2.27318 4.10309 2.27318 4.09896 2.2773C4.05764 2.29797 4.02045 2.3145 3.98327 2.33516C3.97087 2.3393 3.9626 2.34342 3.95434 2.34756C3.90889 2.36823 3.86344 2.39303 3.82625 2.41369C3.79732 2.42609 3.7684 2.44262 3.74361 2.45502C3.73121 2.46328 3.71468 2.47156 3.70642 2.47569C3.66923 2.49635 3.63204 2.51702 3.59899 2.53768C3.5618 2.55835 3.52874 2.57901 3.49982 2.59968C3.47089 2.62034 3.44197 2.63687 3.41718 2.65754C3.41304 2.66168 3.40892 2.66168 3.40478 2.6658C3.37999 2.68234 3.35107 2.703 3.32627 2.72366C3.32627 2.72366 3.32213 2.7278 3.31802 2.73192C3.29736 2.74846 3.27669 2.76499 3.25603 2.78152C3.24778 2.78566 3.2395 2.79392 3.23124 2.79806C3.21058 2.8146 3.18992 2.83525 3.16926 2.85179C3.16512 2.86005 3.15687 2.86419 3.15273 2.86833C3.12794 2.89312 3.10314 2.91379 3.07835 2.93859C3.07421 2.93859 3.07421 2.94273 3.07009 2.94685C3.0453 2.96751 3.02051 2.99231 2.99572 3.01711C2.99158 3.02125 2.99158 3.02537 2.98746 3.02537C2.9668 3.04603 2.94614 3.0667 2.92548 3.0915C2.91722 3.09976 2.90482 3.10803 2.89656 3.11629C2.8759 3.14109 2.8511 3.16589 2.82631 3.19069C2.82217 3.19895 2.81392 3.20309 2.80978 3.21135C2.77672 3.24442 2.7478 3.27748 2.71474 3.31055C2.7106 3.31469 2.70648 3.31881 2.70234 3.32295C2.63623 3.39321 2.56599 3.46347 2.49161 3.52547C2.41723 3.59159 2.33873 3.65359 2.26022 3.70732C2.17758 3.76518 2.09907 3.81478 2.0123 3.86438C1.92965 3.90984 1.84288 3.95117 1.75198 3.98837C1.66521 4.02556 1.5743 4.05863 1.4834 4.08756C1.30985 4.12476 1.13217 4.19502 0.979289 4.20742C0.946233 4.20742 0.909045 4.21568 0.875989 4.21982C0.838801 4.22808 0.805745 4.23636 0.772689 4.24462C0.739633 4.25701 0.706576 4.26941 0.67352 4.28181C0.640464 4.29421 0.607408 4.31074 0.574352 4.32728C0.545427 4.34794 0.512371 4.36447 0.483446 4.38514C0.454523 4.4058 0.425598 4.4306 0.400806 4.4554C0.371883 4.47607 0.342958 4.505 0.318165 4.52979C0.293373 4.55873 0.268581 4.58353 0.247921 4.61245C0.227261 4.64552 0.202469 4.67445 0.18594 4.70752C0.165281 4.73645 0.144621 4.76951 0.128092 4.80257C0.111557 4.83977 0.0950364 4.87284 0.0826402 4.91004C0.070244 4.9431 0.0578479 4.9803 0.0454517 5.01749C0.0371941 5.05056 0.028917 5.08362 0.0247921 5.11668C0.0247921 5.12083 0.0206537 5.12495 0.0206537 5.12908C0.0123961 5.16628 0.0123961 5.21588 0.00825752 5.24068C0.00411914 5.26961 0 5.29441 0 5.32334C0 5.33988 1.28633e-08 5.36054 0.00413839 5.37707C0.00827678 5.406 0.0123959 5.4308 0.0206731 5.4556C0.0289307 5.48039 0.0372078 5.50519 0.0495961 5.52999V5.53413C0.0619923 5.55893 0.0785212 5.58373 0.0950481 5.60853C0.111583 5.63332 0.128106 5.65812 0.148765 5.68292C0.169425 5.70359 0.194217 5.72838 0.21901 5.74905C0.243802 5.77385 0.268594 5.79451 0.297517 5.81518C0.396687 5.90197 0.421479 5.9309 0.549572 5.99703C0.570231 6.00943 0.590893 6.0177 0.615685 6.0301C0.619824 6.0301 0.623943 6.03424 0.628081 6.03424C0.628081 6.04249 0.628081 6.04664 0.63222 6.0549C0.636359 6.08797 0.644616 6.12103 0.65288 6.15409C0.661137 6.19129 0.673541 6.22436 0.685938 6.25329C0.698334 6.27809 0.706597 6.30288 0.718993 6.32768C0.723132 6.33594 0.727251 6.34422 0.73139 6.34835C0.747924 6.38141 0.764445 6.41035 0.780972 6.43927C0.801634 6.46821 0.822294 6.49714 0.842953 6.52607C0.863613 6.55087 0.888405 6.5798 0.913197 6.6046C0.93799 6.6294 0.962782 6.65006 0.991707 6.67486C0.991707 6.67486 0.995846 6.679 0.999965 6.679C1.02476 6.69967 1.04955 6.72033 1.07434 6.73686C1.10326 6.75753 1.13219 6.77406 1.16525 6.79059C1.19417 6.80713 1.22723 6.82366 1.26028 6.83606C1.28507 6.84846 1.314 6.85672 1.34292 6.86499C1.34706 6.86913 1.35118 6.86913 1.35946 6.87325C1.37599 6.87739 1.39664 6.88151 1.41317 6.88565C1.40078 7.10883 1.39664 7.31962 1.42971 7.39401C1.46689 7.47667 1.6487 7.22456 1.83051 6.93525C1.80572 7.22043 1.78919 7.5552 1.83051 7.65439C1.87597 7.75772 2.12389 7.43534 2.33875 7.0799C5.26836 6.40208 7.94178 8.42727 8.22275 11.2873C8.16904 10.841 7.61948 10.593 7.36743 10.655C7.24347 10.9608 7.03273 11.3535 6.69391 11.5973C6.72283 11.3245 6.71044 11.0435 6.65259 10.7707C6.56168 11.1509 6.384 11.5064 6.14021 11.8122C5.74767 11.8412 5.35513 11.651 5.14853 11.3659C5.13199 11.3535 5.12787 11.3287 5.11547 11.3121C5.10308 11.2832 5.09068 11.2543 5.08242 11.2253C5.07002 11.1964 5.06176 11.1675 5.05762 11.1385C5.05348 11.1096 5.05348 11.0807 5.05348 11.0476C5.05348 11.027 5.05348 11.0063 5.05348 10.9856C5.05762 10.9567 5.06588 10.9278 5.07414 10.8988C5.0824 10.8699 5.09068 10.841 5.10307 10.812C5.1196 10.7831 5.13199 10.7542 5.15265 10.7252C5.2229 10.5269 5.2229 10.3657 5.09481 10.2706C5.07001 10.2541 5.04522 10.2417 5.0163 10.2293C4.99976 10.2251 4.97911 10.2169 4.96258 10.2127C4.95018 10.2086 4.94192 10.2045 4.92952 10.2003C4.9006 10.1921 4.87167 10.1838 4.84275 10.1797C4.81383 10.1714 4.7849 10.1673 4.75598 10.1673C4.72706 10.1631 4.694 10.159 4.66507 10.159C4.64441 10.159 4.62375 10.1632 4.60309 10.1632C4.57004 10.1632 4.54111 10.1673 4.51219 10.1756C4.48326 10.1797 4.45434 10.1838 4.42542 10.1921C4.39649 10.2003 4.36757 10.2086 4.33864 10.221C4.30972 10.2334 4.28493 10.2458 4.256 10.2582C4.23121 10.2706 4.20642 10.2872 4.1775 10.2996C3.21473 10.9278 3.78909 12.3991 4.44608 12.8248C4.19815 12.8703 3.9461 12.924 3.87586 12.9778C3.87172 12.9819 3.8676 12.986 3.8676 12.986C4.04528 13.0935 4.23122 13.1844 4.42542 13.2629C4.68987 13.3497 4.97085 13.4283 5.09481 13.4613V13.4655C5.43777 13.5357 5.78486 13.5605 6.13608 13.5399C7.96657 13.4117 9.46649 12.0189 9.73921 10.1838C9.74747 10.221 9.75574 10.2541 9.764 10.2913C9.7764 10.3657 9.79292 10.4442 9.80119 10.5227V10.5269C9.80944 10.5641 9.81358 10.6013 9.81772 10.6343V10.6509C9.82187 10.6881 9.82598 10.7253 9.82598 10.7583C9.83012 10.8038 9.83424 10.8493 9.83424 10.8947V10.9609C9.83424 10.9815 9.83838 11.0063 9.83838 11.027C9.83838 11.0518 9.83424 11.0766 9.83424 11.1014V11.1592C9.83424 11.1882 9.83009 11.213 9.83009 11.2419C9.83009 11.2584 9.83009 11.275 9.82596 11.2956C9.82596 11.3246 9.82182 11.3535 9.82182 11.3866C9.81768 11.399 9.81768 11.4114 9.81768 11.4238C9.81354 11.4568 9.80942 11.4858 9.80528 11.5188C9.80528 11.5312 9.80528 11.5436 9.80114 11.556C9.797 11.5973 9.78875 11.6345 9.78461 11.6759V11.68V11.6842C9.77635 11.7213 9.76807 11.7627 9.75982 11.7999V11.8123C9.75156 11.8495 9.74328 11.8867 9.73502 11.9239C9.73502 11.928 9.73089 11.9363 9.73089 11.9404C9.72263 11.9776 9.71435 12.0148 9.70196 12.052V12.0644C9.68957 12.1057 9.67717 12.1429 9.66891 12.1801C9.66477 12.1843 9.66477 12.1884 9.66477 12.1884C9.65237 12.2297 9.63998 12.271 9.62758 12.3124C9.61105 12.3537 9.59866 12.3909 9.58213 12.4322C9.5656 12.4736 9.55321 12.5149 9.53668 12.5521C9.52014 12.5934 9.50362 12.6306 9.48709 12.6719H9.48295C9.46641 12.7091 9.44989 12.7505 9.42923 12.7877C9.42509 12.8001 9.42097 12.8083 9.41684 12.8166C9.4127 12.8207 9.4127 12.8249 9.40858 12.829C9.14 13.3704 8.74332 13.8457 8.24748 14.2177C8.21442 14.2384 8.18137 14.2632 8.14831 14.288C8.14005 14.2962 8.12765 14.3004 8.11939 14.3086C8.09046 14.3293 8.06154 14.35 8.02848 14.3706L8.04088 14.3954H8.04502C8.10286 14.3872 8.16071 14.3789 8.21856 14.3706H8.2227C8.33013 14.3541 8.43756 14.3334 8.545 14.3128C8.57392 14.3086 8.60698 14.3004 8.6359 14.2921C8.65656 14.288 8.67309 14.2838 8.69375 14.2797C8.72267 14.2756 8.7516 14.2673 8.78052 14.2632C8.80532 14.2549 8.83011 14.2508 8.8549 14.2425C9.2681 14.1433 9.66891 14.0069 10.0532 13.8457C9.39619 14.7426 8.51607 15.4659 7.4872 15.9412C7.96238 15.9081 8.43756 15.8296 8.89622 15.6973C10.5614 15.2055 11.9622 14.0854 12.801 12.5769C12.6316 13.5316 12.2514 14.4409 11.6895 15.2344C12.0903 14.9699 12.458 14.6641 12.7927 14.3169C13.7183 13.3498 14.3257 12.1222 14.5323 10.8038C14.6728 11.4568 14.7141 12.1305 14.6521 12.7959C17.6355 8.63396 14.9 4.31906 13.7555 3.18248C13.7513 3.17422 13.7472 3.17008 13.7472 3.16181C13.7431 3.16595 13.7431 3.16595 13.7431 3.17007C13.7431 3.16593 13.7431 3.16593 13.7389 3.16181C13.7389 3.21141 13.7348 3.261 13.7307 3.3106C13.7183 3.40566 13.7059 3.49659 13.6894 3.58752C13.6687 3.67844 13.6439 3.76937 13.6191 3.8603C13.5902 3.94709 13.5571 4.03802 13.5199 4.12481C13.4828 4.20747 13.4414 4.29427 13.396 4.37693C13.3505 4.45546 13.301 4.53812 13.2472 4.61251C13.1935 4.69104 13.1357 4.76543 13.0778 4.83569C13.0158 4.91009 12.9497 4.97622 12.8836 5.04235C12.8423 5.07954 12.8051 5.11261 12.7638 5.14567C12.7307 5.1746 12.7018 5.1994 12.6688 5.22833C12.5944 5.28619 12.52 5.33992 12.4374 5.38952C12.3589 5.43912 12.2762 5.48871 12.1936 5.53005C12.1068 5.57138 12.02 5.60857 11.9333 5.64577C11.8465 5.67883 11.7556 5.70777 11.6647 5.73256C11.5738 5.75736 11.4787 5.77803 11.3878 5.79456C11.2928 5.8111 11.1978 5.81936 11.1068 5.82762C11.0407 5.83176 10.9746 5.83588 10.9085 5.83588C10.8135 5.83588 10.7184 5.82762 10.6275 5.81935C10.5325 5.81109 10.4375 5.79868 10.3466 5.77801C10.2515 5.76148 10.1606 5.73668 10.0697 5.70775H10.0656C10.1565 5.69949 10.2474 5.69121 10.3383 5.67469C10.4333 5.65815 10.5242 5.63749 10.6151 5.61269C10.706 5.58789 10.7969 5.55896 10.8837 5.5259C10.9746 5.49283 11.0614 5.4515 11.144 5.41017C11.2308 5.36884 11.3093 5.32338 11.392 5.27378C11.4705 5.22005 11.549 5.16632 11.6233 5.10846C11.6977 5.0506 11.768 4.9886 11.8341 4.92247C11.9043 4.86048 11.9663 4.79022 12.0283 4.71995C12.0903 4.64556 12.1481 4.57117 12.2018 4.49677C12.2101 4.48437 12.2184 4.46784 12.2266 4.45544C12.2679 4.38931 12.3093 4.32318 12.3464 4.25705C12.3919 4.17439 12.4332 4.09173 12.4704 4.00494C12.5076 3.91815 12.5407 3.83135 12.5696 3.74042C12.5985 3.65363 12.6192 3.5627 12.6398 3.47178C12.6564 3.37672 12.6729 3.28579 12.6811 3.19486C12.6894 3.0998 12.6977 3.00474 12.6977 2.91382C12.6977 2.84769 12.6935 2.78156 12.6894 2.71543C12.6812 2.62037 12.6688 2.52944 12.6564 2.43852C12.6398 2.34346 12.6192 2.25253 12.5944 2.1616C12.5655 2.07481 12.5365 1.98388 12.5035 1.89709C12.4704 1.81029 12.4291 1.7235 12.3878 1.64084C12.3423 1.55818 12.2969 1.47552 12.2473 1.39699C12.1936 1.31846 12.1399 1.24407 12.082 1.16967C12.02 1.09941 11.9581 1.02915 11.8919 0.958889C11.8589 0.925825 11.8217 0.888627 11.7845 0.855564C11.5986 0.710906 11.4044 0.574515 11.2102 0.450525C11.1812 0.433986 11.1564 0.421593 11.1275 0.409193C10.9912 0.3224 10.8631 0.276913 10.735 0.235584Z" fill="white"/>
</svg>
