<svg width="16" height="14" viewBox="0 0 16 14" fill="none" xmlns="http://www.w3.org/2000/svg">
<path d="M15.9176 10.9912L13.2763 13.7507C13.2189 13.8107 13.1494 13.8585 13.0722 13.8911C12.995 13.9238 12.9118 13.9406 12.8276 13.9406H0.306634C0.246889 13.9406 0.188447 13.9236 0.138487 13.8917C0.0885273 13.8597 0.0492261 13.8143 0.0254124 13.7609C0.00159878 13.7076 -0.00568999 13.6486 0.00444169 13.5912C0.0145734 13.5338 0.0416841 13.4806 0.082443 13.4381L2.72572 10.6785C2.78298 10.6187 2.85223 10.571 2.92917 10.5384C3.00613 10.5057 3.08914 10.4888 3.17308 10.4886H15.6934C15.7531 10.4886 15.8115 10.5056 15.8615 10.5375C15.9114 10.5695 15.9507 10.6149 15.9746 10.6683C15.9984 10.7217 16.0057 10.7807 15.9956 10.838C15.9854 10.8954 15.9583 10.9486 15.9176 10.9912ZM13.2763 5.43417C13.2189 5.37422 13.1494 5.32643 13.0722 5.29376C12.995 5.26111 12.9118 5.24427 12.8276 5.24432H0.306634C0.246889 5.24432 0.188447 5.26132 0.138487 5.29324C0.0885273 5.32516 0.0492261 5.37059 0.0254124 5.42396C0.00159878 5.47735 -0.00568999 5.53634 0.00444169 5.59371C0.0145734 5.65105 0.0416841 5.70428 0.082443 5.74685L2.72572 8.50642C2.78298 8.5662 2.85223 8.61389 2.92917 8.64655C3.00613 8.6792 3.08914 8.69614 3.17308 8.69626H15.6934C15.7531 8.69626 15.8115 8.67927 15.8615 8.64734C15.9114 8.61542 15.9507 8.56999 15.9746 8.51662C15.9984 8.46323 16.0057 8.40424 15.9956 8.34688C15.9854 8.28953 15.9583 8.2363 15.9176 8.19374L13.2763 5.43417ZM0.306634 3.45196H12.8276C12.9118 3.45199 12.995 3.43517 13.0722 3.4025C13.1494 3.36984 13.2189 3.32204 13.2763 3.2621L15.9176 0.502525C15.9583 0.459971 15.9854 0.406745 15.9956 0.349386C16.0057 0.292027 15.9984 0.233034 15.9746 0.179656C15.9507 0.126278 15.9114 0.0808389 15.8615 0.0489224C15.8115 0.0170058 15.7531 1.96553e-06 15.6934 0H3.17308C3.08914 0.000139152 3.00613 0.0170612 2.92917 0.0497185C2.85223 0.0823759 2.78298 0.130073 2.72572 0.189858L0.0831244 2.94943C0.0424049 2.99193 0.0153061 3.04511 0.00515144 3.1024C-0.00500323 3.1597 0.00222771 3.21864 0.0259574 3.272C0.0496871 3.32535 0.088884 3.37079 0.138741 3.40275C0.188599 3.43472 0.246948 3.45182 0.306634 3.45196Z" fill="white"/>
</svg>
