<svg width="16" height="10" viewBox="0 0 16 10" fill="none" xmlns="http://www.w3.org/2000/svg">
<mask id="mask0_7617_5137" style="mask-type:luminance" maskUnits="userSpaceOnUse" x="0" y="0" width="16" height="10">
<path d="M0 0H16V9.6H0V0Z" fill="white"/>
</mask>
<g mask="url(#mask0_7617_5137)">
<path fill-rule="evenodd" clip-rule="evenodd" d="M8 0C5.86667 0 4.53333 1.06667 4 3.2C4.8 2.13333 5.73333 1.73333 6.8 2C7.40859 2.152 7.84356 2.59378 8.32504 3.08237C9.10933 3.87852 10.0172 4.8 12 4.8C14.1333 4.8 15.4667 3.73333 16 1.6C15.2 2.66667 14.2667 3.06667 13.2 2.8C12.5914 2.648 12.1564 2.20622 11.675 1.71763C10.8907 0.921481 9.98281 0 8 0ZM4 4.8C1.86667 4.8 0.533333 5.86667 0 8C0.8 6.93333 1.73333 6.53333 2.8 6.8C3.40859 6.9523 3.84356 7.39378 4.32504 7.88237C5.10933 8.67852 6.01719 9.6 8 9.6C10.1333 9.6 11.4667 8.53333 12 6.4C11.2 7.46667 10.2667 7.86667 9.2 7.6C8.59141 7.448 8.15644 7.00622 7.67496 6.51763C6.89067 5.72148 5.98281 4.8 4 4.8Z" fill="white"/>
</g>
</svg>
