<svg width="20" height="13" viewBox="0 0 20 13" fill="none" xmlns="http://www.w3.org/2000/svg">
<mask id="mask0_8026_7836" style="mask-type:luminance" maskUnits="userSpaceOnUse" x="0" y="0" width="20" height="13">
<path d="M20 0H0V12.4338H20V0Z" fill="white"/>
</mask>
<g mask="url(#mask0_8026_7836)">
<path fill-rule="evenodd" clip-rule="evenodd" d="M0.0511519 1.04666C-0.150614 0.542243 0.227697 0 0.769942 0H4.14951C4.46477 0 4.7422 0.189156 4.8683 0.479193L7.55431 7.17528C7.62997 7.35183 7.62997 7.55359 7.55431 7.74275L5.86452 11.9546C5.61231 12.5977 4.69176 12.5977 4.42694 11.9546L0.0511519 1.04666ZM6.5707 1.02144C6.39415 0.517025 6.75985 0 7.28949 0H10.2403C10.5682 0 10.8582 0.201765 10.9591 0.504414L13.4055 7.20051C13.4686 7.36444 13.4686 7.5536 13.4055 7.71753L11.9427 11.7402C11.7031 12.4086 10.7321 12.4086 10.4925 11.7402L6.5707 1.02144ZM13.1785 0C12.6363 0 12.258 0.542243 12.4597 1.04666L16.8355 11.9546C17.0877 12.5977 18.0083 12.5977 18.2731 11.9546L19.9629 7.74275C20.0385 7.55359 20.0385 7.35183 19.9629 7.17528L17.2769 0.479193C17.1634 0.189156 16.8734 0 16.5581 0H13.1785Z" fill="white"/>
</g>
</svg>
