<svg width="15" height="16" viewBox="0 0 15 16" fill="none" xmlns="http://www.w3.org/2000/svg">
<g clip-path="url(#clip0_249_934)">
<path d="M4.86308 13.7778C10.2286 13.7778 13.1642 9.33139 13.1642 5.47667C13.1642 5.35167 13.1614 5.22389 13.1559 5.09889C13.7269 4.68592 14.2197 4.17439 14.6111 3.58834C14.0793 3.82496 13.5146 3.9795 12.9364 4.04667C13.5452 3.68174 14.0011 3.10844 14.2195 2.43306C13.6467 2.77249 13.0204 3.01193 12.3672 3.14112C11.9272 2.67353 11.3454 2.36393 10.7117 2.26019C10.078 2.15645 9.42784 2.26434 8.86165 2.56718C8.29546 2.87002 7.8448 3.35095 7.57934 3.93561C7.31389 4.52026 7.24843 5.17608 7.39308 5.80167C6.23336 5.74347 5.0988 5.44221 4.06298 4.91741C3.02715 4.3926 2.11318 3.65598 1.3803 2.75528C1.00782 3.39749 0.893838 4.15743 1.06153 4.88066C1.22922 5.60389 1.66599 6.23613 2.28308 6.64889C1.81981 6.63419 1.36668 6.50945 0.961138 6.285V6.32112C0.960723 6.99507 1.19371 7.64836 1.62051 8.16995C2.0473 8.69154 2.64155 9.04923 3.30225 9.18223C2.8731 9.29965 2.42268 9.31675 1.98586 9.23223C2.1723 9.81183 2.53503 10.3188 3.02345 10.6823C3.51186 11.0458 4.10158 11.2478 4.71031 11.26C3.67687 12.0718 2.40028 12.5121 1.08614 12.51C0.853086 12.5096 0.620264 12.4954 0.388916 12.4672C1.72394 13.3237 3.27693 13.7786 4.86308 13.7778Z" fill="white"/>
</g>
<defs>
<clipPath id="clip0_249_934">
<rect width="14.2222" height="14.2222" fill="white" transform="translate(0.388916 0.888916)"/>
</clipPath>
</defs>
</svg>
