<svg width="15" height="16" viewBox="0 0 15 16" fill="none" xmlns="http://www.w3.org/2000/svg">
<g clip-path="url(#clip0_249_941)">
<path d="M7.50003 2.16947C9.40003 2.16947 9.62503 2.1778 10.3723 2.21114C11.0667 2.24169 11.4417 2.35836 11.6917 2.45558C12.0223 2.58336 12.2611 2.73892 12.5084 2.98614C12.7584 3.23614 12.9111 3.47225 13.0389 3.8028C13.1361 4.0528 13.2528 4.43058 13.2834 5.12225C13.3167 5.87225 13.325 6.09725 13.325 7.99447C13.325 9.89447 13.3167 10.1195 13.2834 10.8667C13.2528 11.5611 13.1361 11.9361 13.0389 12.1861C12.9111 12.5167 12.7556 12.7556 12.5084 13.0028C12.2584 13.2528 12.0223 13.4056 11.6917 13.5334C11.4417 13.6306 11.0639 13.7472 10.3723 13.7778C9.62225 13.8111 9.39725 13.8195 7.50003 13.8195C5.60003 13.8195 5.37503 13.8111 4.62781 13.7778C3.93336 13.7472 3.55836 13.6306 3.30836 13.5334C2.97781 13.4056 2.73892 13.25 2.49169 13.0028C2.24169 12.7528 2.08892 12.5167 1.96114 12.1861C1.86392 11.9361 1.74725 11.5584 1.71669 10.8667C1.68336 10.1167 1.67503 9.89169 1.67503 7.99447C1.67503 6.09447 1.68336 5.86947 1.71669 5.12225C1.74725 4.4278 1.86392 4.0528 1.96114 3.8028C2.08892 3.47225 2.24447 3.23336 2.49169 2.98614C2.74169 2.73614 2.97781 2.58336 3.30836 2.45558C3.55836 2.35836 3.93614 2.24169 4.62781 2.21114C5.37503 2.1778 5.60003 2.16947 7.50003 2.16947ZM7.50003 0.888916C5.56947 0.888916 5.32781 0.897249 4.56947 0.930583C3.81392 0.963916 3.29447 1.08614 2.84447 1.26114C2.37503 1.44447 1.97781 1.68614 1.58336 2.08336C1.18614 2.4778 0.944472 2.87503 0.761138 3.34169C0.586138 3.79447 0.463916 4.31114 0.430583 5.06669C0.397249 5.8278 0.388916 6.06947 0.388916 8.00003C0.388916 9.93058 0.397249 10.1722 0.430583 10.9306C0.463916 11.6861 0.586138 12.2056 0.761138 12.6556C0.944472 13.125 1.18614 13.5222 1.58336 13.9167C1.97781 14.3111 2.37503 14.5556 2.84169 14.7361C3.29447 14.9111 3.81114 15.0334 4.56669 15.0667C5.32503 15.1 5.56669 15.1084 7.49725 15.1084C9.4278 15.1084 9.66947 15.1 10.4278 15.0667C11.1834 15.0334 11.7028 14.9111 12.1528 14.7361C12.6195 14.5556 13.0167 14.3111 13.4111 13.9167C13.8056 13.5222 14.05 13.125 14.2306 12.6584C14.4056 12.2056 14.5278 11.6889 14.5611 10.9334C14.5945 10.175 14.6028 9.93336 14.6028 8.00281C14.6028 6.07225 14.5945 5.83058 14.5611 5.07225C14.5278 4.31669 14.4056 3.79725 14.2306 3.34725C14.0556 2.87503 13.8139 2.4778 13.4167 2.08336C13.0223 1.68892 12.625 1.44447 12.1584 1.26392C11.7056 1.08892 11.1889 0.966694 10.4334 0.93336C9.67225 0.897249 9.43058 0.888916 7.50003 0.888916Z" fill="white"/>
<path d="M7.49995 4.34729C5.48328 4.34729 3.84717 5.9834 3.84717 8.00007C3.84717 10.0167 5.48328 11.6528 7.49995 11.6528C9.51661 11.6528 11.1527 10.0167 11.1527 8.00007C11.1527 5.9834 9.51661 4.34729 7.49995 4.34729ZM7.49995 10.3695C6.19161 10.3695 5.1305 9.3084 5.1305 8.00007C5.1305 6.69173 6.19161 5.63062 7.49995 5.63062C8.80828 5.63062 9.86939 6.69173 9.86939 8.00007C9.86939 9.3084 8.80828 10.3695 7.49995 10.3695Z" fill="white"/>
<path d="M12.1501 4.20275C12.1501 4.67498 11.7668 5.05553 11.2974 5.05553C10.8251 5.05553 10.4446 4.6722 10.4446 4.20275C10.4446 3.73053 10.8279 3.34998 11.2974 3.34998C11.7668 3.34998 12.1501 3.73331 12.1501 4.20275Z" fill="white"/>
</g>
<defs>
<clipPath id="clip0_249_941">
<rect width="14.2222" height="14.2222" fill="white" transform="translate(0.388916 0.888916)"/>
</clipPath>
</defs>
</svg>
