<svg width="15" height="16" viewBox="0 0 15 16" fill="none" xmlns="http://www.w3.org/2000/svg">
<path d="M6.31482 8.59267C6.56931 8.9329 6.89399 9.21441 7.26685 9.41812C7.6397 9.62183 8.05201 9.74296 8.4758 9.77331C8.89959 9.80366 9.32494 9.74252 9.72302 9.59402C10.1211 9.44553 10.4826 9.21316 10.783 8.91267L12.5607 7.13489C13.1005 6.57607 13.3991 5.82762 13.3924 5.05074C13.3856 4.27386 13.074 3.53071 12.5247 2.98136C11.9753 2.432 11.2321 2.12039 10.4553 2.11364C9.67839 2.10689 8.92994 2.40554 8.37112 2.94526L7.35186 3.9586" stroke="white" stroke-linecap="round" stroke-linejoin="round"/>
<path d="M8.68521 7.40745C8.43072 7.06723 8.10603 6.78571 7.73318 6.582C7.36032 6.3783 6.94802 6.25716 6.52423 6.22681C6.10044 6.19646 5.67508 6.2576 5.277 6.4061C4.87892 6.55459 4.51744 6.78696 4.21706 7.08745L2.43928 8.86523C1.89956 9.42405 1.60091 10.1725 1.60766 10.9494C1.61441 11.7263 1.92602 12.4694 2.47538 13.0188C3.02473 13.5681 3.76788 13.8797 4.54476 13.8865C5.32164 13.8932 6.07009 13.5946 6.62891 13.0549L7.64225 12.0415" stroke="white" stroke-linecap="round" stroke-linejoin="round"/>
</svg>
