<svg width="19" height="18" viewBox="0 0 19 18" fill="none" xmlns="http://www.w3.org/2000/svg">
<g clip-path="url(#clip0_589_3863)">
<path d="M10.6391 8.87225C10.6391 11.6654 8.39425 13.9296 5.62528 13.9296C2.85631 13.9296 0.611328 11.6649 0.611328 8.87225C0.611328 6.07964 2.85614 3.8147 5.62528 3.8147C8.39442 3.8147 10.6391 6.07913 10.6391 8.87225Z" fill="white"/>
<path d="M16.1394 8.87238C16.1394 11.5015 15.017 13.6337 13.6325 13.6337C12.2479 13.6337 11.1255 11.5015 11.1255 8.87238C11.1255 6.24326 12.2477 4.11108 13.6323 4.11108C15.0169 4.11108 16.1393 6.24257 16.1393 8.87238" fill="white"/>
<path d="M18.389 8.87231C18.389 11.2274 17.9943 13.1377 17.5073 13.1377C17.0203 13.1377 16.6257 11.2279 16.6257 8.87231C16.6257 6.51674 17.0204 4.60693 17.5073 4.60693C17.9941 4.60693 18.389 6.51657 18.389 8.87231Z" fill="white"/>
</g>
<defs>
<clipPath id="clip0_589_3863">
<rect width="17.7778" height="17.7778" fill="white" transform="translate(0.611328 0.111084)"/>
</clipPath>
</defs>
</svg>
