<svg width="28" height="28" viewBox="0 0 28 28" fill="none" xmlns="http://www.w3.org/2000/svg">
<mask id="mask0_8157_5224" style="mask-type:alpha" maskUnits="userSpaceOnUse" x="0" y="0" width="28" height="28">
<rect width="28" height="28" fill="#D9D9D9"/>
</mask>
<g mask="url(#mask0_8157_5224)">
<path d="M11.6891 18.4648H16.3109C16.6097 18.4648 16.8602 18.3637 17.0622 18.1615C17.2642 17.9595 17.3653 17.709 17.3653 17.4102V13.9551C17.3653 13.6564 17.2642 13.406 17.0622 13.2037C16.8602 13.0017 16.6097 12.9007 16.3109 12.9007H16.21V11.734C16.21 11.1223 15.9965 10.603 15.5695 10.176C15.1425 9.74876 14.623 9.53516 14.0111 9.53516C13.3994 9.53516 12.88 9.74876 12.453 10.176C12.026 10.603 11.8125 11.1223 11.8125 11.734V12.9007H11.6891C11.3903 12.9007 11.1398 13.0017 10.9378 13.2037C10.7358 13.406 10.6347 13.6564 10.6347 13.9551V17.4102C10.6347 17.709 10.7358 17.9595 10.9378 18.1615C11.1398 18.3637 11.3903 18.4648 11.6891 18.4648ZM12.8444 12.9007V11.734C12.8444 11.4035 12.9562 11.1264 13.1798 10.9028C13.4034 10.6792 13.6805 10.5674 14.0111 10.5674C14.3416 10.5674 14.6187 10.6792 14.8423 10.9028C15.0659 11.1264 15.1778 11.4035 15.1778 11.734V12.9007H12.8444ZM14 24.9328C13.8789 24.9328 13.76 24.9231 13.6433 24.9037C13.5266 24.8842 13.4137 24.855 13.3044 24.8162C10.8441 23.9412 8.8866 22.3898 7.43196 20.162C5.97732 17.9341 5.25 15.5301 5.25 12.95V7.69562C5.25 7.25248 5.37746 6.85358 5.63238 6.49891C5.8871 6.14444 6.21658 5.88748 6.62083 5.72804L13.2618 3.24887C13.5117 3.15904 13.7577 3.11412 14 3.11412C14.2423 3.11412 14.4883 3.15904 14.7382 3.24887L21.3792 5.72804C21.7834 5.88748 22.1129 6.14444 22.3676 6.49891C22.6225 6.85358 22.75 7.25248 22.75 7.69562V12.95C22.75 15.5301 22.0227 17.9341 20.568 20.162C19.1134 22.3898 17.1559 23.9412 14.6956 24.8162C14.5863 24.855 14.4734 24.8842 14.3567 24.9037C14.24 24.9231 14.1211 24.9328 14 24.9328ZM14 23.2167C16.0222 22.575 17.6944 21.2917 19.0167 19.3667C20.3389 17.4417 21 15.3028 21 12.95V7.68425C21 7.60958 20.9794 7.5423 20.9382 7.48241C20.8971 7.42252 20.8392 7.37761 20.7643 7.34766L14.1234 4.86849C14.086 4.85352 14.0449 4.84604 14 4.84604C13.9551 4.84604 13.914 4.85352 13.8766 4.86849L7.23567 7.34766C7.16081 7.37761 7.10286 7.42252 7.06183 7.48241C7.02061 7.5423 7 7.60958 7 7.68425V12.95C7 15.3028 7.66111 17.4417 8.98333 19.3667C10.3056 21.2917 11.9778 22.575 14 23.2167Z" fill="white"/>
</g>
</svg>
