<svg width="28" height="28" viewBox="0 0 28 28" fill="none" xmlns="http://www.w3.org/2000/svg">
<mask id="mask0_8157_5200" style="mask-type:alpha" maskUnits="userSpaceOnUse" x="0" y="0" width="28" height="28">
<rect width="28" height="28" fill="#D9D9D9"/>
</mask>
<g mask="url(#mask0_8157_5200)">
<path d="M5.83333 23.3333C5.01822 23.3333 4.32833 23.051 3.76366 22.4863C3.199 21.9217 2.91666 21.2318 2.91666 20.4167C2.91666 19.6016 3.199 18.9117 3.76366 18.347C4.32833 17.7823 5.01822 17.5 5.83333 17.5H22.1667C22.9818 17.5 23.6717 17.7823 24.2363 18.347C24.801 18.9117 25.0833 19.6016 25.0833 20.4167C25.0833 21.2318 24.801 21.9217 24.2363 22.4863C23.6717 23.051 22.9818 23.3333 22.1667 23.3333H5.83333ZM5.83333 21.5833H22.1667C22.4972 21.5833 22.7743 21.4715 22.9979 21.2479C23.2215 21.0243 23.3333 20.7472 23.3333 20.4167C23.3333 20.0861 23.2215 19.809 22.9979 19.5854C22.7743 19.3618 22.4972 19.25 22.1667 19.25H5.83333C5.50278 19.25 5.22569 19.3618 5.00208 19.5854C4.77847 19.809 4.66666 20.0861 4.66666 20.4167C4.66666 20.7472 4.77847 21.0243 5.00208 21.2479C5.22569 21.4715 5.50278 21.5833 5.83333 21.5833ZM12.6942 15.1667C12.3967 15.1667 12.1473 15.066 11.9461 14.8648C11.7448 14.6635 11.6442 14.4142 11.6442 14.1167V5.71667C11.6442 5.41917 11.7448 5.16979 11.9461 4.96854C12.1473 4.76729 12.3967 4.66667 12.6942 4.66667H21.0945C21.392 4.66667 21.6413 4.76729 21.8423 4.96854C22.0436 5.16979 22.1442 5.41917 22.1442 5.71667V14.117C22.1442 14.4145 22.0436 14.6637 21.8423 14.8648C21.6411 15.066 21.3917 15.1667 21.0942 15.1667H12.6942ZM13.3942 13.4167H20.3942V6.41667H13.3942V13.4167ZM3.75579 13.0891C3.52032 13.0891 3.32159 13.0046 3.15962 12.8357C2.99765 12.6669 2.91666 12.4651 2.91666 12.2302C2.91666 11.9951 3.00096 11.7968 3.16954 11.6355C3.33793 11.4739 3.53937 11.3931 3.77387 11.3931H8.41808C8.65355 11.3931 8.85227 11.4741 9.01425 11.636C9.17622 11.7982 9.25721 11.9971 9.25721 12.2328C9.25721 12.4687 9.17622 12.6703 9.01425 12.8377C8.85227 13.0053 8.65355 13.0891 8.41808 13.0891H3.75579ZM15.4359 9.625H18.3706C18.6197 9.625 18.8247 9.5411 18.9857 9.37329C19.1469 9.20548 19.2275 8.99762 19.2275 8.74971C19.2275 8.5016 19.1469 8.29685 18.9857 8.13546C18.8247 7.97387 18.6197 7.89308 18.3706 7.89308H15.4181C15.169 7.89308 14.9639 7.97358 14.8027 8.13458C14.6415 8.29558 14.5609 8.50043 14.5609 8.74912C14.5609 8.99801 14.6448 9.20626 14.8126 9.37387C14.9802 9.54129 15.188 9.625 15.4359 9.625ZM6.10721 9.625C5.85812 9.625 5.65298 9.5411 5.49179 9.37329C5.33059 9.20548 5.25 8.99762 5.25 8.74971C5.25 8.5016 5.3339 8.29685 5.50171 8.13546C5.66932 7.97387 5.87708 7.89308 6.125 7.89308H8.4C8.64908 7.89308 8.85422 7.97358 9.01541 8.13458C9.17661 8.29558 9.25721 8.50043 9.25721 8.74912C9.25721 8.99801 9.17661 9.20626 9.01541 9.37387C8.85422 9.54129 8.64908 9.625 8.4 9.625H6.10721Z" fill="white"/>
</g>
</svg>
