<svg width="19" height="19" viewBox="0 0 21 20" fill="none" xmlns="http://www.w3.org/2000/svg">
<path d="M8.86732 12.0375L6.15715 9.327C5.99557 9.16561 5.79247 9.08297 5.54786 9.07908C5.30344 9.07539 5.09665 9.15802 4.92748 9.327C4.75851 9.49616 4.67403 9.70111 4.67403 9.94183C4.67403 10.1826 4.75851 10.3875 4.92748 10.5567L8.12911 13.7583C8.34008 13.9691 8.58615 14.0745 8.86732 14.0745C9.14848 14.0745 9.39455 13.9691 9.60553 13.7583L16.0963 7.26754C16.2577 7.10596 16.3403 6.90286 16.3442 6.65825C16.3479 6.41383 16.2652 6.20704 16.0963 6.03787C15.9271 5.8689 15.7222 5.78441 15.4814 5.78441C15.2407 5.78441 15.0358 5.8689 14.8666 6.03787L8.86732 12.0375ZM2.69303 19.9168C2.10366 19.9168 1.60482 19.7127 1.19648 19.3043C0.788151 18.896 0.583984 18.3972 0.583984 17.8078V2.19254C0.583984 1.60318 0.788151 1.10433 1.19648 0.695996C1.60482 0.287663 2.10366 0.0834961 2.69303 0.0834961H18.3083C18.8976 0.0834961 19.3965 0.287663 19.8048 0.695996C20.2132 1.10433 20.4173 1.60318 20.4173 2.19254V17.8078C20.4173 18.3972 20.2132 18.896 19.8048 19.3043C19.3965 19.7127 18.8976 19.9168 18.3083 19.9168H2.69303Z" fill="white"/>
</svg>
