<svg width="20" height="20" viewBox="0 0 20 20" fill="none" xmlns="http://www.w3.org/2000/svg">
<path d="M2.41666 19.3332C1.93055 19.3332 1.51735 19.163 1.17707 18.8228C0.836795 18.4825 0.666656 18.0693 0.666656 17.5832C0.666656 17.0971 0.836795 16.6839 1.17707 16.3436C1.51735 16.0033 1.93055 15.8332 2.41666 15.8332C2.90277 15.8332 3.31596 16.0033 3.65624 16.3436C3.99652 16.6839 4.16666 17.0971 4.16666 17.5832C4.16666 18.0693 3.99652 18.4825 3.65624 18.8228C3.31596 19.163 2.90277 19.3332 2.41666 19.3332ZM7.46249 19.3332C6.97638 19.3332 6.56318 19.163 6.22291 18.8228C5.88263 18.4825 5.71249 18.0693 5.71249 17.5832C5.71249 17.0971 5.88263 16.6839 6.22291 16.3436C6.56318 16.0033 6.97638 15.8332 7.46249 15.8332C7.9486 15.8332 8.3618 16.0033 8.70207 16.3436C9.04235 16.6839 9.21249 17.0971 9.21249 17.5832C9.21249 18.0693 9.04235 18.4825 8.70207 18.8228C8.3618 19.163 7.9486 19.3332 7.46249 19.3332ZM12.5375 19.3332C12.0514 19.3332 11.6382 19.163 11.2979 18.8228C10.9576 18.4825 10.7875 18.0693 10.7875 17.5832C10.7875 17.0971 10.9576 16.6839 11.2979 16.3436C11.6382 16.0033 12.0514 15.8332 12.5375 15.8332C13.0236 15.8332 13.4368 16.0033 13.7771 16.3436C14.1174 16.6839 14.2875 17.0971 14.2875 17.5832C14.2875 18.0693 14.1174 18.4825 13.7771 18.8228C13.4368 19.163 13.0236 19.3332 12.5375 19.3332ZM17.5833 19.3332C17.0972 19.3332 16.684 19.163 16.3437 18.8228C16.0035 18.4825 15.8333 18.0693 15.8333 17.5832C15.8333 17.0971 16.0035 16.6839 16.3437 16.3436C16.684 16.0033 17.0972 15.8332 17.5833 15.8332C18.0694 15.8332 18.4826 16.0033 18.8229 16.3436C19.1632 16.6839 19.3333 17.0971 19.3333 17.5832C19.3333 18.0693 19.1632 18.4825 18.8229 18.8228C18.4826 19.163 18.0694 19.3332 17.5833 19.3332ZM2.41666 14.2873C1.93055 14.2873 1.51735 14.1172 1.17707 13.7769C0.836795 13.4366 0.666656 13.0234 0.666656 12.5373C0.666656 12.0512 0.836795 11.638 1.17707 11.2978C1.51735 10.9575 1.93055 10.7873 2.41666 10.7873C2.90277 10.7873 3.31596 10.9575 3.65624 11.2978C3.99652 11.638 4.16666 12.0512 4.16666 12.5373C4.16666 13.0234 3.99652 13.4366 3.65624 13.7769C3.31596 14.1172 2.90277 14.2873 2.41666 14.2873ZM7.46249 14.2873C6.97638 14.2873 6.56318 14.1172 6.22291 13.7769C5.88263 13.4366 5.71249 13.0234 5.71249 12.5373C5.71249 12.0512 5.88263 11.638 6.22291 11.2978C6.56318 10.9575 6.97638 10.7873 7.46249 10.7873C7.9486 10.7873 8.3618 10.9575 8.70207 11.2978C9.04235 11.638 9.21249 12.0512 9.21249 12.5373C9.21249 13.0234 9.04235 13.4366 8.70207 13.7769C8.3618 14.1172 7.9486 14.2873 7.46249 14.2873ZM12.5375 14.2873C12.0514 14.2873 11.6382 14.1172 11.2979 13.7769C10.9576 13.4366 10.7875 13.0234 10.7875 12.5373C10.7875 12.0512 10.9576 11.638 11.2979 11.2978C11.6382 10.9575 12.0514 10.7873 12.5375 10.7873C13.0236 10.7873 13.4368 10.9575 13.7771 11.2978C14.1174 11.638 14.2875 12.0512 14.2875 12.5373C14.2875 13.0234 14.1174 13.4366 13.7771 13.7769C13.4368 14.1172 13.0236 14.2873 12.5375 14.2873ZM17.5833 14.2873C17.0972 14.2873 16.684 14.1172 16.3437 13.7769C16.0035 13.4366 15.8333 13.0234 15.8333 12.5373C15.8333 12.0512 16.0035 11.638 16.3437 11.2978C16.684 10.9575 17.0972 10.7873 17.5833 10.7873C18.0694 10.7873 18.4826 10.9575 18.8229 11.2978C19.1632 11.638 19.3333 12.0512 19.3333 12.5373C19.3333 13.0234 19.1632 13.4366 18.8229 13.7769C18.4826 14.1172 18.0694 14.2873 17.5833 14.2873ZM2.41666 9.21234C1.93055 9.21234 1.51735 9.0422 1.17707 8.70192C0.836795 8.36164 0.666656 7.94845 0.666656 7.46234C0.666656 6.97623 0.836795 6.56303 1.17707 6.22275C1.51735 5.88248 1.93055 5.71234 2.41666 5.71234C2.90277 5.71234 3.31596 5.88248 3.65624 6.22275C3.99652 6.56303 4.16666 6.97623 4.16666 7.46234C4.16666 7.94845 3.99652 8.36164 3.65624 8.70192C3.31596 9.0422 2.90277 9.21234 2.41666 9.21234ZM7.46249 9.21234C6.97638 9.21234 6.56318 9.0422 6.22291 8.70192C5.88263 8.36164 5.71249 7.94845 5.71249 7.46234C5.71249 6.97623 5.88263 6.56303 6.22291 6.22275C6.56318 5.88248 6.97638 5.71234 7.46249 5.71234C7.9486 5.71234 8.3618 5.88248 8.70207 6.22275C9.04235 6.56303 9.21249 6.97623 9.21249 7.46234C9.21249 7.94845 9.04235 8.36164 8.70207 8.70192C8.3618 9.0422 7.9486 9.21234 7.46249 9.21234ZM12.5375 9.21234C12.0514 9.21234 11.6382 9.0422 11.2979 8.70192C10.9576 8.36164 10.7875 7.94845 10.7875 7.46234C10.7875 6.97623 10.9576 6.56303 11.2979 6.22275C11.6382 5.88248 12.0514 5.71234 12.5375 5.71234C13.0236 5.71234 13.4368 5.88248 13.7771 6.22275C14.1174 6.56303 14.2875 6.97623 14.2875 7.46234C14.2875 7.94845 14.1174 8.36164 13.7771 8.70192C13.4368 9.0422 13.0236 9.21234 12.5375 9.21234ZM17.5833 9.21234C17.0972 9.21234 16.684 9.0422 16.3437 8.70192C16.0035 8.36164 15.8333 7.94845 15.8333 7.46234C15.8333 6.97623 16.0035 6.56303 16.3437 6.22275C16.684 5.88248 17.0972 5.71234 17.5833 5.71234C18.0694 5.71234 18.4826 5.88248 18.8229 6.22275C19.1632 6.56303 19.3333 6.97623 19.3333 7.46234C19.3333 7.94845 19.1632 8.36164 18.8229 8.70192C18.4826 9.0422 18.0694 9.21234 17.5833 9.21234ZM2.41666 4.1665C1.93055 4.1665 1.51735 3.99636 1.17707 3.65609C0.836795 3.31581 0.666656 2.90261 0.666656 2.4165C0.666656 1.93039 0.836795 1.5172 1.17707 1.17692C1.51735 0.836643 1.93055 0.666504 2.41666 0.666504C2.90277 0.666504 3.31596 0.836643 3.65624 1.17692C3.99652 1.5172 4.16666 1.93039 4.16666 2.4165C4.16666 2.90261 3.99652 3.31581 3.65624 3.65609C3.31596 3.99636 2.90277 4.1665 2.41666 4.1665ZM7.46249 4.1665C6.97638 4.1665 6.56318 3.99636 6.22291 3.65609C5.88263 3.31581 5.71249 2.90261 5.71249 2.4165C5.71249 1.93039 5.88263 1.5172 6.22291 1.17692C6.56318 0.836643 6.97638 0.666504 7.46249 0.666504C7.9486 0.666504 8.3618 0.836643 8.70207 1.17692C9.04235 1.5172 9.21249 1.93039 9.21249 2.4165C9.21249 2.90261 9.04235 3.31581 8.70207 3.65609C8.3618 3.99636 7.9486 4.1665 7.46249 4.1665ZM12.5375 4.1665C12.0514 4.1665 11.6382 3.99636 11.2979 3.65609C10.9576 3.31581 10.7875 2.90261 10.7875 2.4165C10.7875 1.93039 10.9576 1.5172 11.2979 1.17692C11.6382 0.836643 12.0514 0.666504 12.5375 0.666504C13.0236 0.666504 13.4368 0.836643 13.7771 1.17692C14.1174 1.5172 14.2875 1.93039 14.2875 2.4165C14.2875 2.90261 14.1174 3.31581 13.7771 3.65609C13.4368 3.99636 13.0236 4.1665 12.5375 4.1665ZM17.5833 4.1665C17.0972 4.1665 16.684 3.99636 16.3437 3.65609C16.0035 3.31581 15.8333 2.90261 15.8333 2.4165C15.8333 1.93039 16.0035 1.5172 16.3437 1.17692C16.684 0.836643 17.0972 0.666504 17.5833 0.666504C18.0694 0.666504 18.4826 0.836643 18.8229 1.17692C19.1632 1.5172 19.3333 1.93039 19.3333 2.4165C19.3333 2.90261 19.1632 3.31581 18.8229 3.65609C18.4826 3.99636 18.0694 4.1665 17.5833 4.1665Z" fill="white"/>
</svg>
