<svg width="42" height="42" viewBox="0 0 42 42" fill="none" xmlns="http://www.w3.org/2000/svg">
<rect width="42" height="42" rx="21" fill="white" fill-opacity="0.1"/>
<path fill-rule="evenodd" clip-rule="evenodd" d="M16.1948 30.2519V17.8976H12.0884V30.2519H16.1948ZM14.1416 16.2108C15.5736 16.2108 16.4648 15.2621 16.4648 14.0766C16.4382 12.8643 15.5736 11.942 14.1688 11.942C12.7641 11.942 11.8457 12.8643 11.8457 14.0766C11.8457 15.2621 12.7368 16.2108 14.1148 16.2108H14.1416Z" fill="white"/>
<path fill-rule="evenodd" clip-rule="evenodd" d="M18.4668 30.2519H22.5731V23.3527C22.5731 22.9835 22.5998 22.6146 22.7082 22.3507C23.0051 21.6129 23.6807 20.8489 24.8151 20.8489C26.301 20.8489 26.8954 21.9818 26.8954 23.6426V30.2519H31.0014V23.1681C31.0014 19.3734 28.9755 17.6077 26.2739 17.6077C24.0586 17.6077 23.0861 18.8459 22.5458 19.6893H22.5732V17.8976H18.4669C18.5208 19.0568 18.4668 30.2519 18.4668 30.2519Z" fill="white"/>
<rect x="24" y="24" width="18" height="18" rx="9" fill="white"/>
<mask id="mask0_6401_913" style="mask-type:alpha" maskUnits="userSpaceOnUse" x="28" y="28" width="10" height="10">
<rect x="28" y="28" width="10" height="10" fill="#D9D9D9"/>
</mask>
<g mask="url(#mask0_6401_913)">
<path d="M34.666 31.5L30.9577 35.2083C30.8813 35.2847 30.7841 35.3229 30.666 35.3229C30.548 35.3229 30.4507 35.2847 30.3743 35.2083C30.298 35.1319 30.2598 35.0347 30.2598 34.9167C30.2598 34.7986 30.298 34.7014 30.3743 34.625L34.0827 30.9167H30.916C30.798 30.9167 30.699 30.8767 30.6191 30.7969C30.5393 30.717 30.4993 30.6181 30.4993 30.5C30.4993 30.3819 30.5393 30.283 30.6191 30.2031C30.699 30.1233 30.798 30.0833 30.916 30.0833H35.0827C35.2007 30.0833 35.2997 30.1233 35.3796 30.2031C35.4594 30.283 35.4993 30.3819 35.4993 30.5V34.6667C35.4993 34.7847 35.4594 34.8837 35.3796 34.9635C35.2997 35.0434 35.2007 35.0833 35.0827 35.0833C34.9646 35.0833 34.8657 35.0434 34.7858 34.9635C34.7059 34.8837 34.666 34.7847 34.666 34.6667V31.5Z" fill="black"/>
</g>
</svg>
