<svg width="28" height="28" viewBox="0 0 28 28" fill="none" xmlns="http://www.w3.org/2000/svg">
<mask id="mask0_7862_6065" style="mask-type:alpha" maskUnits="userSpaceOnUse" x="0" y="0" width="28" height="28">
<rect width="28" height="28" fill="#D9D9D9"/>
</mask>
<g mask="url(#mask0_7862_6065)">
<path d="M6.19238 22.75C5.60302 22.75 5.10417 22.5458 4.69584 22.1375C4.2875 21.7291 4.08334 21.2303 4.08334 20.6409V12.8333C4.08334 11.4728 4.3436 10.1903 4.86413 8.98592C5.38466 7.78153 6.09516 6.7292 6.99563 5.82892C7.89591 4.92844 8.94824 4.21795 10.1526 3.69742C11.357 3.17689 12.6395 2.91663 14 2.91663C15.3605 2.91663 16.643 3.17689 17.8474 3.69742C19.0518 4.21795 20.1041 4.92844 21.0044 5.82892C21.9049 6.7292 22.6154 7.78153 23.1359 8.98592C23.6564 10.1903 23.9167 11.4728 23.9167 12.8333V23.7819C23.9167 24.3712 23.7125 24.8701 23.3042 25.2784C22.8958 25.6868 22.397 25.8909 21.8076 25.8909H14.875C14.6271 25.8909 14.4192 25.807 14.2514 25.6392C14.0838 25.4714 14 25.2635 14 25.0156C14 24.7675 14.0838 24.5598 14.2514 24.3923C14.4192 24.2247 14.6271 24.1409 14.875 24.1409H21.8076C21.9124 24.1409 21.9985 24.1073 22.0658 24.04C22.133 23.9727 22.1667 23.8867 22.1667 23.7819V22.75H20.1475C19.5674 22.75 19.0709 22.5435 18.6579 22.1305C18.2449 21.7175 18.0384 21.2209 18.0384 20.6409V16.6025C18.0384 16.0225 18.2449 15.526 18.6579 15.113C19.0709 14.7 19.5674 14.4935 20.1475 14.4935H22.1667V12.8333C22.1667 10.5777 21.3694 8.65274 19.775 7.05829C18.1806 5.46385 16.2556 4.66663 14 4.66663C11.7444 4.66663 9.81945 5.46385 8.225 7.05829C6.63056 8.65274 5.83334 10.5777 5.83334 12.8333V14.4935H7.85254C8.43257 14.4935 8.92909 14.7 9.34209 15.113C9.75509 15.526 9.96159 16.0225 9.96159 16.6025V20.6409C9.96159 21.2209 9.75509 21.7175 9.34209 22.1305C8.92909 22.5435 8.43257 22.75 7.85254 22.75H6.19238Z" fill="white"/>
</g>
</svg>
