<svg width="28" height="28" viewBox="0 0 28 28" fill="none" xmlns="http://www.w3.org/2000/svg">
<mask id="mask0_7862_6057" style="mask-type:alpha" maskUnits="userSpaceOnUse" x="0" y="0" width="28" height="28">
<rect width="28" height="28" fill="#D9D9D9"/>
</mask>
<g mask="url(#mask0_7862_6057)">
<path d="M10.2667 24.5H5.83333C5.19167 24.5 4.64236 24.2715 4.18542 23.8146C3.72847 23.3576 3.5 22.8083 3.5 22.1667V17.7333C4.43333 17.7333 5.25 17.4368 5.95 16.8437C6.65 16.2507 7 15.4972 7 14.5833C7 13.6694 6.65 12.916 5.95 12.3229C5.25 11.7299 4.43333 11.4333 3.5 11.4333V7C3.5 6.35833 3.72847 5.80903 4.18542 5.35208C4.64236 4.89514 5.19167 4.66667 5.83333 4.66667H10.5C10.5 3.85 10.7819 3.15972 11.3458 2.59583C11.9097 2.03194 12.6 1.75 13.4167 1.75C14.2333 1.75 14.9236 2.03194 15.4875 2.59583C16.0514 3.15972 16.3333 3.85 16.3333 4.66667H21C21.6417 4.66667 22.191 4.89514 22.6479 5.35208C23.1049 5.80903 23.3333 6.35833 23.3333 7V11.6667C24.15 11.6667 24.8403 11.9486 25.4042 12.5125C25.9681 13.0764 26.25 13.7667 26.25 14.5833C26.25 15.4 25.9681 16.0903 25.4042 16.6542C24.8403 17.2181 24.15 17.5 23.3333 17.5V22.1667C23.3333 22.8083 23.1049 23.3576 22.6479 23.8146C22.191 24.2715 21.6417 24.5 21 24.5H16.5667C16.5667 23.5278 16.2604 22.7014 15.6479 22.0208C15.0354 21.3403 14.2917 21 13.4167 21C12.5417 21 11.7979 21.3403 11.1854 22.0208C10.5729 22.7014 10.2667 23.5278 10.2667 24.5Z" fill="white"/>
</g>
</svg>
