<svg width="28" height="28" viewBox="0 0 28 28" fill="none" xmlns="http://www.w3.org/2000/svg">
<mask id="mask0_7860_5582" style="mask-type:alpha" maskUnits="userSpaceOnUse" x="0" y="0" width="28" height="28">
<rect width="28" height="28" fill="#D9D9D9"/>
</mask>
<g mask="url(#mask0_7860_5582)">
<path d="M7.51829 19.6378C7.17432 19.4465 6.90472 19.1883 6.7095 18.8631C6.51428 18.538 6.41667 18.1734 6.41667 17.7691V12.7075L4.088 11.4198C3.89647 11.3105 3.75589 11.1776 3.66625 11.0211C3.57642 10.8648 3.5315 10.6909 3.5315 10.4996C3.5315 10.3083 3.57642 10.1345 3.66625 9.97839C3.75589 9.82206 3.89647 9.68926 4.088 9.57998L12.9955 4.72664C13.1536 4.63875 13.3164 4.5742 13.484 4.53298C13.6517 4.49195 13.8236 4.47144 14 4.47144C14.1764 4.47144 14.3483 4.49195 14.516 4.53298C14.6836 4.5742 14.8466 4.63866 15.0051 4.72635L25.0653 10.2015C25.2447 10.2987 25.3824 10.4302 25.4782 10.5959C25.5739 10.7617 25.6217 10.9406 25.6217 11.1325V18.0159C25.6217 18.2638 25.5378 18.4716 25.37 18.6394C25.2022 18.807 24.9944 18.8909 24.7465 18.8909C24.4983 18.8909 24.2906 18.807 24.1232 18.6394C23.9556 18.4716 23.8717 18.2638 23.8717 18.0159V11.4691L21.5833 12.7075V17.7691C21.5833 18.1734 21.4857 18.538 21.2905 18.8631C21.0953 19.1883 20.8257 19.4465 20.4817 19.6378L15.0074 22.5974C14.8474 22.687 14.6836 22.7524 14.516 22.7936C14.3483 22.8347 14.1764 22.8552 14 22.8552C13.8236 22.8552 13.6517 22.8347 13.484 22.7936C13.3164 22.7524 13.1526 22.687 12.9926 22.5974L7.51829 19.6378ZM13.8653 14.7492C13.9178 14.7791 13.9645 14.7941 14.0055 14.7941C14.0468 14.7941 14.0935 14.7791 14.1458 14.7492L21.9806 10.4999L14.1458 6.26169C14.0935 6.23174 14.0468 6.21677 14.0055 6.21677C13.9645 6.21677 13.9178 6.23174 13.8653 6.26169L6.01942 10.4999L13.8653 14.7492ZM13.8542 21.0827C13.9065 21.1127 13.9551 21.1276 14 21.1276C14.0449 21.1276 14.0935 21.1127 14.1458 21.0827L19.665 18.101C19.7249 18.0637 19.7679 18.0207 19.794 17.9721C19.8202 17.9235 19.8333 17.8618 19.8333 17.7869V13.6409L15.0252 16.2816C14.8652 16.3712 14.6992 16.4367 14.5273 16.4779C14.3553 16.5191 14.1795 16.5397 14 16.5397C13.8205 16.5397 13.6448 16.5191 13.4727 16.4779C13.3008 16.4367 13.1348 16.3712 12.9748 16.2816L8.16667 13.6409V17.7869C8.16667 17.8468 8.17979 17.9048 8.20604 17.961C8.2321 18.017 8.27507 18.0637 8.33496 18.101L13.8542 21.0827Z" fill="white"/>
</g>
</svg>
