<svg width="28" height="28" viewBox="0 0 28 28" fill="none" xmlns="http://www.w3.org/2000/svg">
<mask id="mask0_7860_5574" style="mask-type:alpha" maskUnits="userSpaceOnUse" x="0" y="0" width="28" height="28">
<rect width="28" height="28" fill="#D9D9D9"/>
</mask>
<g mask="url(#mask0_7860_5574)">
<path d="M16.0416 14.8301C15.2265 14.8301 14.5366 14.5478 13.972 13.9831C13.4073 13.4184 13.125 12.7285 13.125 11.9134C13.125 11.0983 13.4073 10.4084 13.972 9.84377C14.5366 9.2791 15.2265 8.99677 16.0416 8.99677C16.8568 8.99677 17.5466 9.2791 18.1113 9.84377C18.676 10.4084 18.9583 11.0983 18.9583 11.9134C18.9583 12.7285 18.676 13.4184 18.1113 13.9831C17.5466 14.5478 16.8568 14.8301 16.0416 14.8301ZM8.34601 18.4424C7.76618 18.4424 7.26976 18.2359 6.85676 17.8229C6.44376 17.4099 6.23726 16.9134 6.23726 16.3333V7.49352C6.23726 6.91368 6.44376 6.41727 6.85676 6.00427C7.26976 5.59127 7.76618 5.38477 8.34601 5.38477H23.737C24.317 5.38477 24.8135 5.59127 25.2265 6.00427C25.6395 6.41727 25.846 6.91368 25.846 7.49352V16.3333C25.846 16.9134 25.6395 17.4099 25.2265 17.8229C24.8135 18.2359 24.317 18.4424 23.737 18.4424H8.34601ZM10.096 16.6924H21.9873C21.9873 16.1106 22.1938 15.6136 22.6068 15.2014C23.0198 14.7894 23.5162 14.5833 24.096 14.5833V9.24352C23.5142 9.24352 23.0173 9.03702 22.6053 8.62402C22.1933 8.21102 21.9873 7.7146 21.9873 7.13477H10.096C10.096 7.71654 9.88951 8.21345 9.47651 8.62547C9.06351 9.0375 8.5671 9.24352 7.98726 9.24352V14.5833C8.56904 14.5833 9.06594 14.7898 9.47797 15.2028C9.89 15.6158 10.096 16.1124 10.096 16.6924ZM21.4935 22.5257H4.26297C3.68294 22.5257 3.18643 22.3192 2.77343 21.9062C2.36043 21.4932 2.15393 20.9967 2.15393 20.4167V9.73731C2.15393 9.48939 2.23783 9.28153 2.40564 9.11372C2.57344 8.94611 2.78131 8.86231 3.02922 8.86231C3.27733 8.86231 3.4851 8.94611 3.65251 9.11372C3.82013 9.28153 3.90393 9.48939 3.90393 9.73731V20.4167C3.90393 20.5063 3.94126 20.5886 4.01593 20.6634C4.09079 20.7383 4.17314 20.7757 4.26297 20.7757H21.4935C21.7414 20.7757 21.9492 20.8596 22.1171 21.0274C22.2847 21.195 22.3685 21.4029 22.3685 21.651C22.3685 21.8991 22.2847 22.1069 22.1171 22.2743C21.9492 22.4419 21.7414 22.5257 21.4935 22.5257ZM8.34601 16.6924H7.98726V7.13477H8.34601C8.24879 7.13477 8.16469 7.17025 8.09372 7.24122C8.02275 7.3122 7.98726 7.39629 7.98726 7.49352V16.3333C7.98726 16.4306 8.02275 16.5147 8.09372 16.5856C8.16469 16.6568 8.24879 16.6924 8.34601 16.6924Z" fill="white"/>
</g>
</svg>
