<svg width="28" height="28" viewBox="0 0 28 28" fill="none" xmlns="http://www.w3.org/2000/svg">
<mask id="mask0_7860_5602" style="mask-type:alpha" maskUnits="userSpaceOnUse" x="0" y="0" width="28" height="28">
<rect width="28" height="28" fill="#D9D9D9"/>
</mask>
<g mask="url(#mask0_7860_5602)">
<path d="M6.70833 18.9584V11.9584C6.70833 11.7105 6.79223 11.5026 6.96004 11.3348C7.12785 11.1672 7.33571 11.0834 7.58362 11.0834C7.83173 11.0834 8.0396 11.1672 8.20721 11.3348C8.37462 11.5026 8.45833 11.7105 8.45833 11.9584V18.9584C8.45833 19.2063 8.37443 19.4142 8.20662 19.582C8.03882 19.7496 7.83096 19.8334 7.58304 19.8334C7.33493 19.8334 7.12716 19.7496 6.95975 19.582C6.79214 19.4142 6.70833 19.2063 6.70833 18.9584ZM13.125 18.9584V11.9584C13.125 11.7105 13.2089 11.5026 13.3767 11.3348C13.5445 11.1672 13.7524 11.0834 14.0003 11.0834C14.2484 11.0834 14.4562 11.1672 14.6236 11.3348C14.7912 11.5026 14.875 11.7105 14.875 11.9584V18.9584C14.875 19.2063 14.7911 19.4142 14.6233 19.582C14.4555 19.7496 14.2476 19.8334 13.9997 19.8334C13.7516 19.8334 13.5438 19.7496 13.3764 19.582C13.2088 19.4142 13.125 19.2063 13.125 18.9584ZM4.10579 23.9167C3.85787 23.9167 3.65011 23.8328 3.4825 23.665C3.31469 23.4972 3.23079 23.2894 3.23079 23.0415C3.23079 22.7933 3.31469 22.5856 3.4825 22.4182C3.65011 22.2506 3.85787 22.1667 4.10579 22.1667H23.8942C24.1421 22.1667 24.3499 22.2507 24.5175 22.4185C24.6853 22.5863 24.7692 22.7941 24.7692 23.042C24.7692 23.2902 24.6853 23.4979 24.5175 23.6653C24.3499 23.8329 24.1421 23.9167 23.8942 23.9167H4.10579ZM19.5417 18.9584V11.9584C19.5417 11.7105 19.6256 11.5026 19.7934 11.3348C19.9612 11.1672 20.169 11.0834 20.417 11.0834C20.6651 11.0834 20.8728 11.1672 21.0402 11.3348C21.2079 11.5026 21.2917 11.7105 21.2917 11.9584V18.9584C21.2917 19.2063 21.2078 19.4142 21.04 19.582C20.8722 19.7496 20.6643 19.8334 20.4164 19.8334C20.1683 19.8334 19.9604 19.7496 19.7928 19.582C19.6254 19.4142 19.5417 19.2063 19.5417 18.9584ZM23.9391 8.75008H3.97804C3.77037 8.75008 3.59391 8.67756 3.44866 8.5325C3.30341 8.38764 3.23079 8.21157 3.23079 8.00429V7.54871C3.23079 7.39685 3.2688 7.26589 3.34483 7.15583C3.42105 7.04597 3.52139 6.95663 3.64583 6.88779L13.0734 2.27508C13.3647 2.1345 13.673 2.06421 13.9985 2.06421C14.324 2.06421 14.6334 2.1345 14.9266 2.27508L24.3069 6.85863C24.4535 6.93349 24.5672 7.03819 24.6479 7.17275C24.7288 7.3075 24.7692 7.45217 24.7692 7.60675V7.92292C24.7692 8.1617 24.691 8.35925 24.5347 8.51558C24.3784 8.67192 24.1798 8.75008 23.9391 8.75008ZM7.36779 7.00008H20.6322L14.1572 3.85913C14.1047 3.83657 14.0523 3.82529 14 3.82529C13.9477 3.82529 13.8953 3.83657 13.8428 3.85913L7.36779 7.00008Z" fill="white"/>
</g>
</svg>
