<svg width="28" height="29" viewBox="0 0 28 29" fill="none" xmlns="http://www.w3.org/2000/svg">
<mask id="mask0_7860_5566" style="mask-type:alpha" maskUnits="userSpaceOnUse" x="0" y="0" width="28" height="29">
<rect y="0.5" width="28" height="28" fill="#D9D9D9"/>
</mask>
<g mask="url(#mask0_7860_5566)">
<path d="M5.02573 5.75H22.9743C23.5637 5.75 24.0625 5.95417 24.4709 6.3625C24.8792 6.77083 25.0834 7.26968 25.0834 7.85904V13.625C25.0834 13.8729 24.9995 14.0808 24.8316 14.2486C24.6638 14.4162 24.456 14.5 24.2081 14.5C23.96 14.5 23.7522 14.4162 23.5848 14.2486C23.4172 14.0808 23.3334 13.8729 23.3334 13.625V7.85904C23.3334 7.76921 23.2959 7.68696 23.2211 7.61229C23.1464 7.53743 23.0641 7.5 22.9743 7.5H5.02573C4.9359 7.5 4.85365 7.53743 4.77898 7.61229C4.70412 7.68696 4.66669 7.76921 4.66669 7.85904V10.1924C4.66669 10.4403 4.58278 10.6481 4.41498 10.8157C4.24717 10.9835 4.03931 11.0674 3.7914 11.0674C3.54328 11.0674 3.33552 10.9835 3.1681 10.8157C3.00049 10.6481 2.91669 10.4403 2.91669 10.1924V7.85904C2.91669 7.26968 3.12085 6.77083 3.52919 6.3625C3.93752 5.95417 4.43637 5.75 5.02573 5.75ZM5.02573 23.25C4.43637 23.25 3.93752 23.0458 3.52919 22.6375C3.12085 22.2292 2.91669 21.7303 2.91669 21.141V18.8076C2.91669 18.5597 3.00059 18.3519 3.1684 18.1843C3.3362 18.0165 3.54406 17.9326 3.79198 17.9326C4.04009 17.9326 4.24785 18.0165 4.41527 18.1843C4.58288 18.3519 4.66669 18.5597 4.66669 18.8076V21.141C4.66669 21.2308 4.70412 21.313 4.77898 21.3877C4.85365 21.4626 4.9359 21.5 5.02573 21.5H11.9473C12.1952 21.5 12.403 21.5839 12.5706 21.7517C12.7384 21.9195 12.8223 22.1274 12.8223 22.3753C12.8223 22.6234 12.7384 22.8312 12.5706 22.9986C12.403 23.1662 12.1952 23.25 11.9473 23.25H5.02573ZM15.5482 20.0767C15.5482 19.2962 15.8223 18.6241 16.3704 18.0604C16.9187 17.4967 17.5869 17.2148 18.375 17.2148C18.8034 17.2148 19.2111 17.3127 19.5983 17.5085C19.9854 17.7045 20.3405 17.9925 20.6634 18.3725L21 18.6755L21.3141 18.3835C21.6253 18.0038 21.9775 17.7141 22.3709 17.5144C22.7642 17.3147 23.1823 17.2148 23.625 17.2148C24.396 17.2148 25.0599 17.4967 25.6168 18.0604C26.1735 18.6241 26.4519 19.2962 26.4519 20.0767C26.4519 20.701 26.2104 21.3127 25.7274 21.9115C25.2442 22.5106 24.1695 23.5244 22.5033 24.9528L21.6799 25.6527C21.5827 25.7426 21.4744 25.808 21.355 25.849C21.2358 25.8903 21.1165 25.9109 20.9971 25.9109C20.8779 25.9109 20.7603 25.8931 20.6442 25.8575C20.5279 25.8219 20.4162 25.7597 20.3091 25.6708L19.4676 24.9528C17.8014 23.5244 16.7316 22.5106 16.2581 21.9115C15.7848 21.3127 15.5482 20.701 15.5482 20.0767ZM21 23.9275L21.8616 23.2118C23.0327 22.2112 23.799 21.5138 24.1602 21.1197C24.5213 20.7255 24.7019 20.3774 24.7019 20.0752C24.7019 19.7791 24.5942 19.52 24.379 19.2979C24.1635 19.0759 23.9122 18.9648 23.625 18.9648C23.4409 18.9648 23.2741 19.0026 23.1245 19.078C22.975 19.1536 22.8052 19.2804 22.6153 19.4583L21 20.9975L19.3556 19.4583C19.1656 19.2804 18.9953 19.1536 18.8446 19.078C18.6939 19.0026 18.5374 18.9648 18.375 18.9648C18.0699 18.9648 17.8141 19.0759 17.6076 19.2979C17.4013 19.52 17.2982 19.7791 17.2982 20.0752C17.2982 20.3731 17.4851 20.7295 17.8591 21.1445C18.233 21.5594 18.9943 22.256 20.1431 23.2343L21 23.9275ZM8.16669 20.0417C7.98566 20.0417 7.82709 20.0032 7.69098 19.9262C7.55487 19.8492 7.44948 19.7299 7.37481 19.5683L5.28356 15.375H3.79169C3.54377 15.375 3.33601 15.2911 3.1684 15.1233C3.00059 14.9555 2.91669 14.7476 2.91669 14.4997C2.91669 14.2516 3.00059 14.0438 3.1684 13.8764C3.33601 13.7088 3.54377 13.625 3.79169 13.625H5.83335C5.99319 13.625 6.14213 13.669 6.28019 13.7571C6.41824 13.8452 6.52353 13.9627 6.59606 14.1097L8.16669 17.2215L12.0415 9.44308C12.1148 9.30094 12.2247 9.19429 12.3714 9.12313C12.5182 9.05215 12.6723 9.01667 12.8336 9.01667C12.995 9.01667 13.1475 9.05215 13.291 9.12313C13.4347 9.19429 13.5424 9.30094 13.6141 9.44308L15.6873 13.625H18.6667C18.9146 13.625 19.1224 13.7089 19.29 13.8767C19.4578 14.0445 19.5417 14.2524 19.5417 14.5003C19.5417 14.7484 19.4578 14.9562 19.29 15.1236C19.1224 15.2912 18.9146 15.375 18.6667 15.375H15.1667C14.9857 15.375 14.8271 15.3365 14.691 15.2595C14.5549 15.1825 14.4495 15.0632 14.3748 14.9016L12.8223 11.8076L8.9294 19.5683C8.85473 19.7299 8.74866 19.8492 8.61119 19.9262C8.47391 20.0032 8.32574 20.0417 8.16669 20.0417Z" fill="white"/>
</g>
</svg>
