<svg width="28" height="28" viewBox="0 0 28 28" fill="none" xmlns="http://www.w3.org/2000/svg">
<mask id="mask0_7862_6041" style="mask-type:alpha" maskUnits="userSpaceOnUse" x="0" y="0" width="28" height="28">
<rect width="28" height="28" fill="#D9D9D9"/>
</mask>
<g mask="url(#mask0_7862_6041)">
<path d="M6.90988 23.0417C6.66177 23.0417 6.45401 22.9578 6.28659 22.79C6.11898 22.6224 6.03518 22.4146 6.03518 22.1667V14.8077H4.57684C4.32893 14.8077 4.12116 14.7238 3.95355 14.556C3.78575 14.3882 3.70184 14.1803 3.70184 13.9324C3.70184 13.6843 3.78575 13.4765 3.95355 13.3091C4.12116 13.1415 4.32893 13.0577 4.57684 13.0577H9.24351C9.49143 13.0577 9.69929 13.1416 9.86709 13.3094C10.0347 13.4772 10.1185 13.6851 10.1185 13.9332C10.1185 14.1812 10.0347 14.3889 9.86709 14.5565C9.69929 14.724 9.49143 14.8077 9.24351 14.8077H7.78518V22.1667C7.78518 22.4146 7.70127 22.6224 7.53347 22.79C7.36566 22.9578 7.1578 23.0417 6.90988 23.0417ZM6.90988 10.2757C6.66177 10.2757 6.45401 10.1918 6.28659 10.024C6.11898 9.85643 6.03518 9.64867 6.03518 9.40075V5.83337C6.03518 5.58546 6.11908 5.37769 6.28689 5.21008C6.45469 5.04228 6.66265 4.95837 6.91076 4.95837C7.15868 4.95837 7.36644 5.04228 7.53405 5.21008C7.70147 5.37769 7.78518 5.58546 7.78518 5.83337V9.40075C7.78518 9.64867 7.70127 9.85643 7.53347 10.024C7.36566 10.1918 7.1578 10.2757 6.90988 10.2757ZM11.6667 10.2757C11.4188 10.2757 11.211 10.1918 11.0434 10.024C10.8756 9.85624 10.7917 9.64828 10.7917 9.40017C10.7917 9.15225 10.8756 8.94448 11.0434 8.77687C11.211 8.60946 11.4188 8.52575 11.6667 8.52575H13.125V5.83337C13.125 5.58546 13.2089 5.37769 13.3767 5.21008C13.5445 5.04228 13.7524 4.95837 14.0003 4.95837C14.2484 4.95837 14.4562 5.04228 14.6236 5.21008C14.7912 5.37769 14.875 5.58546 14.875 5.83337V8.52575H16.3333C16.5813 8.52575 16.789 8.60965 16.9566 8.77746C17.1244 8.94526 17.2083 9.15312 17.2083 9.40104C17.2083 9.64915 17.1244 9.85692 16.9566 10.0243C16.789 10.1919 16.5813 10.2757 16.3333 10.2757H11.6667ZM13.9997 23.0417C13.7516 23.0417 13.5438 22.9578 13.3764 22.79C13.2088 22.6224 13.125 22.4146 13.125 22.1667V13.9327C13.125 13.6847 13.2089 13.477 13.3767 13.3094C13.5445 13.1416 13.7524 13.0577 14.0003 13.0577C14.2484 13.0577 14.4562 13.1416 14.6236 13.3094C14.7912 13.477 14.875 13.6847 14.875 13.9327V22.1667C14.875 22.4146 14.7911 22.6224 14.6233 22.79C14.4555 22.9578 14.2476 23.0417 13.9997 23.0417ZM21.0893 23.0417C20.8413 23.0417 20.6336 22.9578 20.466 22.79C20.2986 22.6224 20.2148 22.4146 20.2148 22.1667V19.4743H18.7565C18.5086 19.4743 18.3007 19.3904 18.1329 19.2226C17.9653 19.0548 17.8815 18.847 17.8815 18.599C17.8815 18.3509 17.9653 18.1432 18.1329 17.9757C18.3007 17.8081 18.5086 17.7243 18.7565 17.7243H23.4232C23.6711 17.7243 23.8789 17.8082 24.0465 17.976C24.2143 18.1438 24.2982 18.3518 24.2982 18.5999C24.2982 18.8478 24.2143 19.0556 24.0465 19.2232C23.8789 19.3906 23.6711 19.4743 23.4232 19.4743H21.9648V22.1667C21.9648 22.4146 21.8809 22.6224 21.7131 22.79C21.5453 22.9578 21.3374 23.0417 21.0893 23.0417ZM21.0893 14.9424C20.8413 14.9424 20.6336 14.8585 20.466 14.6907C20.2986 14.5231 20.2148 14.3153 20.2148 14.0674V5.83337C20.2148 5.58546 20.2987 5.37769 20.4666 5.21008C20.6344 5.04228 20.8422 4.95837 21.0901 4.95837C21.3382 4.95837 21.546 5.04228 21.7134 5.21008C21.881 5.37769 21.9648 5.58546 21.9648 5.83337V14.0674C21.9648 14.3153 21.8809 14.5231 21.7131 14.6907C21.5453 14.8585 21.3374 14.9424 21.0893 14.9424Z" fill="white"/>
</g>
</svg>
