<svg width="24" height="17" viewBox="0 0 24 17" fill="none" xmlns="http://www.w3.org/2000/svg">
<path d="M9.4109 12.6843H1.79169C1.54338 12.6843 1.33552 12.6006 1.1681 12.4331C1.00049 12.2655 0.916687 12.0576 0.916687 11.8093C0.916687 11.561 1.00049 11.3531 1.1681 11.1857C1.33552 11.0181 1.54338 10.9343 1.79169 10.9343H9.4109L6.71852 8.24189C6.55713 8.0805 6.47449 7.88051 6.4706 7.64193C6.46691 7.40335 6.54955 7.19354 6.71852 7.01251C6.89955 6.83148 7.10751 6.74097 7.3424 6.74097C7.57709 6.74097 7.78495 6.83148 7.96598 7.01251L12.0248 11.0711C12.1339 11.1803 12.2109 11.2955 12.2558 11.4167C12.3007 11.5378 12.3232 11.6687 12.3232 11.8093C12.3232 11.9498 12.3007 12.0807 12.2558 12.2018C12.2109 12.323 12.1339 12.4382 12.0248 12.5475L7.94819 16.6241C7.77455 16.7975 7.57145 16.8831 7.3389 16.8808C7.10634 16.8786 6.89955 16.787 6.71852 16.606C6.54955 16.425 6.46205 16.2201 6.45602 15.9915C6.45019 15.7626 6.53769 15.5577 6.71852 15.3766L9.4109 12.6843ZM14.5891 6.05439L17.2815 8.74676C17.4429 8.90835 17.5255 9.10843 17.5294 9.34701C17.5331 9.5856 17.4505 9.7954 17.2815 9.97643C17.1005 10.1573 16.8925 10.2477 16.6576 10.2477C16.423 10.2477 16.2151 10.1573 16.0341 9.97643L11.9752 5.9176C11.8661 5.80851 11.7891 5.6934 11.7442 5.57226C11.6993 5.45112 11.6769 5.32017 11.6769 5.17939C11.6769 5.03881 11.6993 4.90794 11.7442 4.7868C11.7891 4.66567 11.8661 4.55055 11.9752 4.44147L16.0519 0.364846C16.2255 0.191402 16.4286 0.105749 16.6611 0.107888C16.8937 0.110222 17.1005 0.201804 17.2815 0.382638C17.4505 0.563665 17.538 0.76861 17.544 0.997472C17.5499 1.22633 17.4624 1.43128 17.2815 1.6123L14.5891 4.30468H22.2084C22.4567 4.30468 22.6645 4.38839 22.8319 4.5558C22.9995 4.72342 23.0834 4.93128 23.0834 5.17939C23.0834 5.42769 22.9995 5.63565 22.8319 5.80326C22.6645 5.97068 22.4567 6.05439 22.2084 6.05439H14.5891Z" fill="white"/>
</svg>
