<svg width="28" height="28" viewBox="0 0 28 28" fill="none" xmlns="http://www.w3.org/2000/svg">
<mask id="mask0_10713_31589" style="mask-type:alpha" maskUnits="userSpaceOnUse" x="0" y="0" width="28" height="28">
<rect width="28" height="28" fill="#D9D9D9"/>
</mask>
<g mask="url(#mask0_10713_31589)">
<path d="M21.1616 22.9943L15.6515 17.4841L17.4954 15.6399L23.0058 21.1501C23.2541 21.3984 23.3783 21.7058 23.3783 22.0723C23.3783 22.4387 23.2541 22.746 23.0058 22.9943C22.7575 23.2426 22.4501 23.3668 22.0836 23.3668C21.7172 23.3668 21.4099 23.2426 21.1616 22.9943ZM5.00562 22.9943C4.75731 22.746 4.63316 22.4387 4.63316 22.0723C4.63316 21.7058 4.75731 21.3984 5.00562 21.1501L12.1672 13.9888L9.44333 11.276C9.2518 11.4675 9.00952 11.5633 8.71649 11.5633C8.42327 11.5633 8.1809 11.4675 7.98937 11.276L7.41974 10.695V13.1293C7.41974 13.3715 7.31241 13.5357 7.09774 13.6219C6.88308 13.7078 6.6897 13.6648 6.51762 13.4927L3.57412 10.5492C3.40203 10.3771 3.35906 10.1838 3.4452 9.96935C3.53115 9.75468 3.69526 9.64735 3.93753 9.64735H6.37178L5.83103 9.1066C5.62026 8.89562 5.51487 8.64771 5.51487 8.36284C5.51487 8.07798 5.62026 7.83007 5.83103 7.6191L8.41578 5.03464C8.74478 4.70544 9.1011 4.46462 9.48474 4.31218C9.86838 4.15954 10.2674 4.08322 10.6817 4.08322C11.0107 4.08322 11.3211 4.13037 11.6127 4.22468C11.9044 4.31879 12.1894 4.46764 12.4676 4.67122C12.6006 4.76086 12.6739 4.88385 12.6875 5.04018C12.701 5.19651 12.6471 5.33525 12.526 5.45639L10.6459 7.33647L11.2875 7.97814C11.4789 8.16947 11.5745 8.41175 11.5745 8.70497C11.5745 8.99819 11.4789 9.24047 11.2875 9.4318L14.0111 12.1446L16.8158 9.33993C16.6857 9.10368 16.5907 8.85955 16.5308 8.60755C16.4709 8.35536 16.441 8.09023 16.441 7.81218C16.441 6.76218 16.803 5.87522 17.5269 5.1513C18.2508 4.42739 19.1377 4.06543 20.1877 4.06543C20.3209 4.06543 20.4425 4.06835 20.5523 4.07418C20.6624 4.08021 20.778 4.09897 20.8991 4.13047C21.0442 4.18122 21.1392 4.28398 21.1841 4.43876C21.2288 4.59373 21.1944 4.728 21.0808 4.84155L19.297 6.6251C19.1879 6.73437 19.1334 6.8593 19.1334 6.99989C19.1334 7.14047 19.1879 7.2654 19.297 7.37468L20.6252 8.70293C20.7345 8.81201 20.8595 8.86655 21 8.86655C21.1406 8.86655 21.2655 8.81201 21.3748 8.70293L23.1584 6.9191C23.2719 6.80554 23.4062 6.76821 23.5612 6.8071C23.7159 6.84599 23.8187 6.94389 23.8695 7.1008C23.901 7.22194 23.9197 7.33754 23.9257 7.4476C23.9316 7.55746 23.9345 7.67898 23.9345 7.81218C23.9345 8.86218 23.5725 9.74914 22.8486 10.4731C22.1247 11.197 21.2377 11.5589 20.1877 11.5589C19.9097 11.5589 19.6446 11.532 19.3924 11.4781C19.1404 11.4243 18.8962 11.3263 18.66 11.1841L6.84983 22.9943C6.60152 23.2426 6.2941 23.3668 5.92758 23.3668C5.56124 23.3668 5.25392 23.2426 5.00562 22.9943Z" fill="white"/>
</g>
</svg>
