<svg width="29" height="28" viewBox="0 0 29 28" fill="none" xmlns="http://www.w3.org/2000/svg">
<mask id="mask0_4485_1258" style="mask-type:alpha" maskUnits="userSpaceOnUse" x="0" y="0" width="29" height="28">
<rect x="0.333984" width="28" height="28" fill="#D9D9D9"/>
</mask>
<g mask="url(#mask0_4485_1258)">
<path d="M24.784 16.569L16.9023 24.4507C16.6904 24.6614 16.4519 24.8196 16.1869 24.9252C15.9218 25.0306 15.6576 25.0833 15.3941 25.0833C15.1305 25.0833 14.8668 25.0306 14.6031 24.9252C14.3395 24.8196 14.1022 24.6614 13.8915 24.4507L3.86483 14.4351C3.66592 14.2438 3.51367 14.0192 3.40808 13.7614C3.30269 13.5035 3.25 13.2323 3.25 12.9476V5.03675C3.25 4.45381 3.45601 3.95467 3.86804 3.53933C4.28026 3.12419 4.78096 2.91663 5.37013 2.91663H13.281C13.5627 2.91663 13.8357 2.97379 14.0997 3.08813C14.364 3.20226 14.5929 3.35597 14.7866 3.54925L24.784 13.5648C24.9977 13.7767 25.1536 14.0151 25.2516 14.28C25.3496 14.545 25.3986 14.8107 25.3986 15.0771C25.3986 15.3435 25.3496 15.6054 25.2516 15.8628C25.1536 16.1205 24.9977 16.3558 24.784 16.569ZM7.94583 9.07517C8.35261 9.07517 8.69814 8.93342 8.98242 8.64992C9.2665 8.36642 9.40854 8.02206 9.40854 7.61684C9.40854 7.2087 9.26679 6.86181 8.98329 6.57617C8.69979 6.29033 8.35543 6.14742 7.95021 6.14742C7.54207 6.14742 7.19518 6.28985 6.90954 6.57471C6.62371 6.85957 6.48079 7.20549 6.48079 7.61246C6.48079 8.01924 6.62322 8.36476 6.90808 8.64904C7.19294 8.93313 7.53886 9.07517 7.94583 9.07517Z" fill="white"/>
</g>
</svg>
