<svg width="29" height="28" viewBox="0 0 29 28" fill="none" xmlns="http://www.w3.org/2000/svg">
<mask id="mask0_4485_1240" style="mask-type:alpha" maskUnits="userSpaceOnUse" x="0" y="0" width="29" height="28">
<rect x="0.666016" width="28" height="28" fill="#D9D9D9"/>
</mask>
<g mask="url(#mask0_4485_1240)">
<path d="M8.29388 14.478C8.79205 13.2844 9.37723 12.1412 10.0494 11.0486C10.7218 9.95605 11.4716 8.9184 12.2988 7.93567L10.7147 7.60346C10.3632 7.53327 10.0214 7.54902 9.68951 7.65071C9.3574 7.75241 9.06641 7.92819 8.81655 8.17805L5.35476 11.6398C5.09303 11.9016 4.99435 12.2179 5.05871 12.5889C5.12288 12.9597 5.33074 13.2154 5.6823 13.356L8.29388 14.478ZM24.176 3.63009C22.2496 3.60034 20.4253 3.99895 18.7029 4.82592C16.9807 5.65309 15.439 6.74723 14.0779 8.10834C13.2043 8.98178 12.4332 9.92931 11.7647 10.9509C11.096 11.9725 10.5067 13.045 9.99663 14.1683C9.89941 14.3987 9.8508 14.6339 9.8508 14.8738C9.8508 15.114 9.94053 15.3238 10.12 15.5033L13.4406 18.8125C13.6201 18.992 13.828 19.0836 14.0642 19.0873C14.3007 19.091 14.534 19.0442 14.7642 18.947C15.8875 18.4445 16.96 17.8553 17.9816 17.1792C19.0032 16.5031 19.9507 15.7283 20.8242 14.8549C22.1853 13.4938 23.2794 11.952 24.1066 10.2296C24.9338 8.50744 25.3324 6.68306 25.3024 4.75651C25.3024 4.61592 25.271 4.47903 25.2082 4.34584C25.1454 4.21284 25.0594 4.0917 24.9501 3.98242C24.841 3.87334 24.7199 3.7873 24.5867 3.7243C24.4537 3.66149 24.3168 3.63009 24.176 3.63009ZM17.2725 11.66C16.8778 11.265 16.6805 10.783 16.6805 10.2139C16.6805 9.64474 16.8778 9.16281 17.2725 8.76809C17.6675 8.37317 18.1495 8.17571 18.7186 8.17571C19.2878 8.17571 19.7698 8.37317 20.1647 8.76809C20.5594 9.16281 20.7568 9.64474 20.7568 10.2139C20.7568 10.783 20.5594 11.265 20.1647 11.66C19.7698 12.0549 19.2878 12.2523 18.7186 12.2523C18.1495 12.2523 17.6675 12.0549 17.2725 11.66ZM14.4434 20.6386L15.5651 23.2502C15.7059 23.6018 15.9617 23.8126 16.3325 23.8828C16.7035 23.9532 17.0199 23.8576 17.2816 23.5958L20.7434 20.134C20.9932 19.8842 21.169 19.5883 21.2707 19.2465C21.3724 18.9049 21.3881 18.5583 21.3177 18.2067L21.0038 16.634C20.0091 17.461 18.9684 18.2107 17.8818 18.8831C16.7951 19.5555 15.6489 20.1407 14.4434 20.6386ZM6.02996 18.781C6.59852 18.2126 7.28851 17.9274 8.09992 17.9253C8.91134 17.9229 9.60123 18.2059 10.1696 18.7743C10.738 19.3427 11.0221 20.0325 11.0221 20.844C11.0221 21.6554 10.738 22.3453 10.1696 22.9136C9.3782 23.705 8.44487 24.1863 7.36959 24.3574C6.29412 24.5287 5.21194 24.6794 4.12305 24.8095C4.25313 23.7132 4.40869 22.6292 4.58971 21.5574C4.77074 20.4858 5.25082 19.5603 6.02996 18.781Z" fill="white"/>
</g>
</svg>
