<svg width="28" height="28" viewBox="0 0 28 28" fill="none" xmlns="http://www.w3.org/2000/svg">
<mask id="mask0_4485_1249" style="mask-type:alpha" maskUnits="userSpaceOnUse" x="0" y="0" width="28" height="28">
<rect width="28" height="28" fill="#D9D9D9"/>
</mask>
<g mask="url(#mask0_4485_1249)">
<path d="M14.0071 24.2083C13.7588 24.2083 13.5509 24.1245 13.3835 23.9569C13.2159 23.7895 13.1321 23.5816 13.1321 23.3333V21.7673C12.2347 21.6102 11.4536 21.2923 10.7888 20.8136C10.1238 20.3351 9.59095 19.6695 9.1902 18.8168C9.09143 18.6121 9.09026 18.3945 9.1867 18.1641C9.28315 17.9337 9.45183 17.7692 9.69275 17.6706C9.89769 17.5839 10.1123 17.5868 10.3365 17.6793C10.5608 17.7721 10.7284 17.927 10.839 18.144C11.1771 18.787 11.6121 19.278 12.1439 19.6169C12.6755 19.9556 13.3519 20.125 14.173 20.125C15.0152 20.125 15.7582 19.9246 16.4022 19.5238C17.0461 19.1229 17.368 18.4872 17.368 17.6166C17.368 16.8612 17.1261 16.258 16.6423 15.8071C16.1583 15.3562 15.1573 14.8855 13.6393 14.3949C12.0493 13.8922 10.9451 13.3044 10.3265 12.6315C9.70801 11.9583 9.39875 11.1117 9.39875 10.0916C9.39875 8.91757 9.81087 7.99357 10.6351 7.31963C11.4592 6.64588 12.2915 6.27157 13.1321 6.19671V4.66663C13.1321 4.41832 13.2159 4.21046 13.3835 4.04304C13.5509 3.87543 13.7588 3.79163 14.0071 3.79163C14.2554 3.79163 14.4632 3.87543 14.6307 4.04304C14.7983 4.21046 14.8821 4.41832 14.8821 4.66663V6.19671C15.5986 6.29102 16.2271 6.49936 16.7677 6.82175C17.3085 7.14395 17.7613 7.56754 18.1263 8.09254C18.2564 8.28543 18.2848 8.49631 18.2115 8.72517C18.1381 8.95403 17.9811 9.12154 17.7404 9.22771C17.5355 9.32201 17.3227 9.33252 17.1022 9.25921C16.8815 9.1859 16.6785 9.04678 16.493 8.84184C16.2178 8.52489 15.8876 8.27474 15.5025 8.09138C15.1173 7.90821 14.6382 7.81663 14.0654 7.81663C13.1875 7.81663 12.4819 8.03051 11.9485 8.45829C11.4153 8.88607 11.1487 9.43051 11.1487 10.0916C11.1487 10.7706 11.4217 11.3136 11.9677 11.7206C12.5136 12.1274 13.5284 12.5536 15.0122 12.9993C16.3912 13.4181 17.4203 14.0149 18.0995 14.7898C18.7785 15.5645 19.118 16.4948 19.118 17.5808C19.118 18.8565 18.7078 19.8466 17.8874 20.5511C17.0671 21.2558 16.0653 21.6731 14.8821 21.8032V23.3333C14.8821 23.5816 14.7983 23.7895 14.6307 23.9569C14.4632 24.1245 14.2554 24.2083 14.0071 24.2083Z" fill="white"/>
</g>
</svg>
