<svg width="29" height="28" viewBox="0 0 29 28" fill="none" xmlns="http://www.w3.org/2000/svg">
<mask id="mask0_4485_1267" style="mask-type:alpha" maskUnits="userSpaceOnUse" x="0" y="0" width="29" height="28">
<rect x="0.666016" width="28" height="28" fill="#D9D9D9"/>
</mask>
<g mask="url(#mask0_4485_1267)">
<path d="M9.1237 6.52433C7.90473 7.42481 6.96799 8.52274 6.31349 9.81812C5.65918 11.1133 5.33203 12.5073 5.33203 14C5.33203 16.1912 5.99392 18.1199 7.3177 19.7861C8.64128 21.4525 10.3546 22.5437 12.4577 23.0598C12.6821 23.1226 12.8631 23.2535 13.0005 23.4524C13.1382 23.6513 13.207 23.8689 13.207 24.1051C13.207 24.3414 13.1225 24.5384 12.9536 24.6963C12.7844 24.854 12.5974 24.9075 12.3927 24.8567C9.82739 24.3212 7.71767 23.0507 6.06353 21.045C4.4092 19.0391 3.58203 16.6908 3.58203 14C3.58203 12.2755 3.94068 10.6777 4.65799 9.2065C5.3751 7.73553 6.40225 6.46162 7.73945 5.38479H5.47786C5.22956 5.38479 5.0217 5.30099 4.85428 5.13337C4.68667 4.96596 4.60286 4.7581 4.60286 4.50979C4.60286 4.26149 4.68667 4.05353 4.85428 3.88592C5.0217 3.7185 5.22956 3.63479 5.47786 3.63479H9.81932C10.1199 3.63479 10.3708 3.73532 10.5718 3.93638C10.7731 4.13763 10.8737 4.38856 10.8737 4.68917V9.03062C10.8737 9.27893 10.7899 9.48679 10.6223 9.65421C10.4549 9.82182 10.247 9.90562 9.9987 9.90562C9.75039 9.90562 9.54253 9.82182 9.37511 9.65421C9.2075 9.48679 9.1237 9.27893 9.1237 9.03062V6.52433ZM13.0029 16.4859L19.0089 10.4799C19.1825 10.3065 19.3856 10.2208 19.6182 10.223C19.8507 10.2253 20.0575 10.3169 20.2385 10.4977C20.4075 10.6787 20.495 10.8837 20.501 11.1125C20.5069 11.3414 20.4194 11.5463 20.2385 11.7274L13.7411 18.2248C13.5301 18.4356 13.284 18.541 13.0029 18.541C12.7217 18.541 12.4756 18.4356 12.2647 18.2248L9.0922 15.0343C8.93081 14.8727 8.84525 14.6726 8.83553 14.434C8.82581 14.1957 8.91137 13.9859 9.0922 13.8049C9.26136 13.6359 9.46631 13.5515 9.70703 13.5515C9.94775 13.5515 10.1527 13.6359 10.3219 13.8049L13.0029 16.4859ZM21.5913 22.6267H23.8529C24.1012 22.6267 24.309 22.7104 24.4764 22.8778C24.6441 23.0454 24.7279 23.2534 24.7279 23.5017C24.7279 23.75 24.6441 23.9578 24.4764 24.1252C24.309 24.2929 24.1012 24.3767 23.8529 24.3767H19.5114C19.2108 24.3767 18.96 24.276 18.7589 24.0748C18.5577 23.8737 18.457 23.6228 18.457 23.322V18.9808C18.457 18.7325 18.5408 18.5246 18.7084 18.357C18.8759 18.1895 19.0837 18.1058 19.332 18.1058C19.5803 18.1058 19.7882 18.1895 19.9556 18.357C20.1232 18.5246 20.207 18.7325 20.207 18.9808V21.4868C21.4186 20.5671 22.3534 19.4626 23.0114 18.1732C23.6696 16.8838 23.9987 15.4928 23.9987 14C23.9987 11.8088 23.3368 9.88015 22.013 8.21396C20.6894 6.54757 18.9761 5.45635 16.873 4.94029C16.6486 4.87749 16.4677 4.74857 16.3302 4.55354C16.1925 4.35832 16.1237 4.14249 16.1237 3.90604C16.1237 3.66979 16.2082 3.47088 16.3772 3.30929C16.5463 3.1479 16.7333 3.09258 16.938 3.14333C19.5033 3.67125 21.6131 4.94 23.2672 6.94958C24.9215 8.95917 25.7487 11.3093 25.7487 14C25.7487 15.7246 25.39 17.3243 24.6727 18.7991C23.9556 20.2738 22.9285 21.5496 21.5913 22.6267Z" fill="white"/>
</g>
</svg>
